<svg width="24" height="23" viewBox="0 0 24 23" fill="none" xmlns="http://www.w3.org/2000/svg">
<path opacity="0.4" d="M19.24 5.34747H18.84L15.46 2.10831C15.19 1.84956 14.75 1.84956 14.47 2.10831C14.2 2.36706 14.2 2.78872 14.47 3.05706L16.86 5.34747H7.14L9.53 3.05706C9.8 2.79831 9.8 2.37664 9.53 2.10831C9.26 1.84956 8.82 1.84956 8.54 2.10831L5.17 5.34747H4.77C3.87 5.34747 2 5.34748 2 7.80081C2 8.73039 2.2 9.34372 2.62 9.74622C2.86 9.98581 3.15 10.1104 3.46 10.1775C3.75 10.2446 4.06 10.2541 4.36 10.2541H19.64C19.95 10.2541 20.24 10.235 20.52 10.1775C21.36 9.98581 22 9.41081 22 7.80081C22 5.34748 20.13 5.34747 19.24 5.34747Z" fill="#0E131A"/>
<path d="M19.65 10.2542H4.36002C4.06002 10.2542 3.75002 10.2446 3.46002 10.1775L4.72002 17.5375C5.00002 19.1858 5.75002 21.0833 9.08002 21.0833H14.69C18.06 21.0833 18.66 19.4637 19.02 17.6525L20.53 10.1775C20.25 10.235 19.95 10.2542 19.65 10.2542ZM10.61 16.445C10.61 16.8187 10.3 17.1158 9.91002 17.1158C9.52002 17.1158 9.21002 16.8187 9.21002 16.445V13.2825C9.21002 12.9087 9.52002 12.6117 9.91002 12.6117C10.3 12.6117 10.61 12.9087 10.61 13.2825V16.445ZM14.89 16.445C14.89 16.8187 14.58 17.1158 14.19 17.1158C13.8 17.1158 13.49 16.8187 13.49 16.445V13.2825C13.49 12.9087 13.8 12.6117 14.19 12.6117C14.58 12.6117 14.89 12.9087 14.89 13.2825V16.445Z" fill="#0E131A"/>
</svg>
