<svg width="28" height="28" viewBox="0 0 28 28" fill="none" xmlns="http://www.w3.org/2000/svg">
<path opacity="0.4" d="M22.4467 6.51H21.98L18.0367 2.56666C17.7217 2.25166 17.2084 2.25166 16.8817 2.56666C16.5667 2.88166 16.5667 3.395 16.8817 3.72166L19.67 6.51H8.33004L11.1184 3.72166C11.4334 3.40666 11.4334 2.89333 11.1184 2.56666C10.8034 2.25166 10.29 2.25166 9.96337 2.56666L6.03171 6.51H5.56504C4.51504 6.51 2.33337 6.51 2.33337 9.49666C2.33337 10.6283 2.56671 11.375 3.05671 11.865C3.33671 12.1567 3.67504 12.3083 4.03671 12.39C4.37504 12.4717 4.73671 12.4833 5.08671 12.4833H22.9134C23.275 12.4833 23.6134 12.46 23.94 12.39C24.92 12.1567 25.6667 11.4567 25.6667 9.49666C25.6667 6.51 23.485 6.51 22.4467 6.51Z" fill="#7B7C80"/>
<path d="M22.9249 12.4833H5.08662C4.73662 12.4833 4.37495 12.4717 4.03662 12.39L5.50662 21.35C5.83329 23.3567 6.70829 25.6667 10.5933 25.6667H17.1383C21.07 25.6667 21.77 23.695 22.19 21.49L23.9516 12.39C23.625 12.46 23.275 12.4833 22.9249 12.4833ZM12.3783 20.02C12.3783 20.475 12.0166 20.8367 11.5616 20.8367C11.1066 20.8367 10.745 20.475 10.745 20.02V16.17C10.745 15.715 11.1066 15.3533 11.5616 15.3533C12.0166 15.3533 12.3783 15.715 12.3783 16.17V20.02ZM17.3716 20.02C17.3716 20.475 17.01 20.8367 16.555 20.8367C16.1 20.8367 15.7383 20.475 15.7383 20.02V16.17C15.7383 15.715 16.1 15.3533 16.555 15.3533C17.01 15.3533 17.3716 15.715 17.3716 16.17V20.02Z" fill="#7B7C80"/>
</svg>
