<svg width="65" height="79" viewBox="0 0 65 79" fill="none" xmlns="http://www.w3.org/2000/svg">
<g clip-path="url(#clip0_148_757)">
<path d="M32.503 39.3762C34.2212 39.3762 35.6141 39.0572 35.6141 38.6637C35.6141 38.2702 34.2212 37.9512 32.503 37.9512C30.7848 37.9512 29.3919 38.2702 29.3919 38.6637C29.3919 39.0572 30.7848 39.3762 32.503 39.3762Z" fill="#A1A1A1"/>
<path d="M26.7409 31.6229C27.7759 32.8246 28.8351 33.5673 30.9475 33.5673H34.0586C36.1649 33.5673 37.2302 32.8246 38.2652 31.6229C41.0616 28.3743 44.1787 24.0327 45.8916 21.3819C49.0693 16.4546 49.6503 10.8389 47.4048 6.73882C45.7221 3.66529 41.7758 0 32.503 0C23.2303 0 19.2839 3.66529 17.6013 6.73882C15.3557 10.8449 15.9368 16.4546 19.1144 21.3819C20.8274 24.0388 23.9445 28.3743 26.7409 31.6229ZM22.274 17.318C22.4616 15.9534 23.2121 15.7481 23.3816 16.8229C23.7932 19.4073 24.574 21.249 25.615 22.8432C26.2082 23.7549 26.8982 23.8516 26.6198 22.9639C25.494 19.3651 24.6527 15.0657 26.4745 10.6819C26.868 9.73385 27.6367 9.23871 27.6003 10.4826C27.4793 14.5404 27.788 17.4388 28.9743 20.2467C29.3919 21.2369 30.088 21.3336 29.9125 19.8964C29.2769 14.5283 29.8035 10.0116 31.3167 6.88374C31.7162 6.06252 32.4909 5.48284 32.4909 6.88374C32.4909 10.9717 32.4909 13.0912 32.4909 17.1067C32.4909 18.26 32.957 18.3144 33.3686 17.2939C34.7304 13.8883 34.9907 9.61309 34.9483 5.21111C34.9362 3.76794 35.4325 3.65321 36.1104 4.92731C36.8489 6.30406 37.3331 8.49599 37.2302 11.6178C37.1818 13.1335 38.0049 12.4813 38.3015 11.3401C38.7978 9.43193 39.0157 6.92601 38.4589 4.14232C38.2289 3.00711 38.7192 2.93465 39.3668 3.64718C39.8026 4.13025 40.6258 5.54322 40.9223 6.23764C41.5034 7.60835 41.9331 7.11924 41.806 5.88741C41.691 4.7522 41.4005 3.67133 40.8194 2.90446C40.6015 2.62065 40.8618 2.56631 41.0313 2.63877C48.809 5.99006 49.2206 14.2506 44.9595 20.8505C43.1739 23.6161 40.1294 27.8127 37.5207 30.844C36.5826 31.9369 35.7412 32.4623 34.0283 32.4623H30.9656C29.2527 32.4623 28.4174 31.9369 27.4732 30.844C26.638 29.8718 25.7543 28.7789 24.8827 27.6497C24.2895 26.8768 23.7811 26.0435 23.4179 25.1377C22.3042 22.3661 22.0258 19.039 22.2618 17.3241L22.274 17.318Z" fill="#A1A1A1"/>
<path d="M27.1463 50.0825C27.4369 50.0825 27.5761 49.9376 27.5761 49.6538V48.0235C27.5761 47.7336 27.4308 47.5947 27.1463 47.5947H21.6263C21.3357 47.5947 21.1965 47.7396 21.1965 48.0235V60.7221C21.1965 61.012 21.3418 61.1509 21.6263 61.1509H27.1463C27.4369 61.1509 27.5761 61.0059 27.5761 60.7221V59.0918C27.5761 58.8019 27.4308 58.6631 27.1463 58.6631H23.9445V55.4325H26.6561C26.9466 55.4325 27.0858 55.2876 27.0858 55.0038V53.5063C27.0858 53.2165 26.9406 53.0776 26.6561 53.0776H23.9445V50.0825H27.1463Z" fill="#A1A1A1"/>
<path d="M48.3248 47.5947H47.4835C47.1929 47.5947 47.0537 47.7396 47.0537 48.0235V60.7221C47.0537 61.012 47.199 61.1509 47.4835 61.1509H48.3248C48.6153 61.1509 48.7545 61.0059 48.7545 60.7221V55.0038H52.5072V60.7221C52.5072 61.012 52.6525 61.1509 52.9369 61.1509H53.7783C54.0688 61.1509 54.208 61.0059 54.208 60.7221V48.0235C54.208 47.7336 54.0627 47.5947 53.7783 47.5947H52.9369C52.6464 47.5947 52.5072 47.7396 52.5072 48.0235V53.3734H48.7545V48.0235C48.7545 47.7336 48.6093 47.5947 48.3248 47.5947Z" fill="#A1A1A1"/>
<path d="M57.4281 61.1143C58.0394 61.2109 58.687 61.2713 59.4678 61.2713C63.0571 61.2713 63.2326 57.6302 63.2326 54.2245C63.2326 52.2983 62.9058 49.7984 62.2157 48.1318C62.0947 47.8299 61.8828 47.6789 61.4955 47.6306C60.872 47.534 60.2244 47.4736 59.5889 47.4736C55.8846 47.4736 55.703 50.9698 55.703 54.4661C55.703 56.8089 56.048 58.9767 56.7017 60.5709C56.8349 60.903 57.0588 61.072 57.4341 61.1203L57.4281 61.1143ZM59.6857 48.796C60.1276 48.796 60.5391 48.8202 60.981 48.8806C61.4349 49.7682 61.895 51.7065 61.895 54.1702C61.895 58.3608 61.4047 59.9247 59.4012 59.9247C58.7657 59.9247 58.4389 59.9006 57.9365 59.8402C57.3615 58.4635 57.0467 56.6942 57.0467 54.454C57.0467 50.1305 57.5491 48.79 59.6857 48.79V48.796Z" fill="#A1A1A1"/>
<path d="M42.5324 47.5947H41.1039C40.42 47.5947 40.0386 47.9208 39.9055 48.6333L37.6357 60.698C37.5752 61.012 37.7205 61.1509 38.017 61.1509H39.385C39.6634 61.1509 39.8026 61.0422 39.851 60.7584L40.2686 58.3068H43.3374L43.8034 60.7584C43.8519 61.0361 43.9971 61.1509 44.2695 61.1509H45.6253C45.9279 61.1509 46.0671 60.9939 46.0066 60.6859L43.7126 48.6333C43.5795 47.9268 43.1982 47.5947 42.5142 47.5947H42.5324ZM40.6137 56.2719L41.6123 50.0946H42.0421L43.0045 56.2719H40.6197H40.6137Z" fill="#A1A1A1"/>
<path d="M34.3612 60.6738C34.3612 60.9637 34.5064 61.1026 34.7909 61.1026H36.2193C36.5099 61.1026 36.6491 60.9576 36.6491 60.6738V48.0235C36.6491 47.7336 36.5038 47.5947 36.2193 47.5947H31.6253C30.6872 47.5947 30.1727 48.0718 30.1001 49.0198L29.5977 56.1873C29.5008 57.5762 29.3193 58.6631 28.5445 58.6631C28.254 58.6631 28.1753 58.7959 28.1753 59.0918V60.7221C28.1753 61.012 28.3206 61.1509 28.605 61.1509H28.6898C31.244 61.1509 31.5467 59.4058 31.7343 56.8757L32.2609 50.0282C32.2851 49.7867 32.4182 49.6719 32.6422 49.6719H34.3551V60.6738H34.3612Z" fill="#A1A1A1"/>
<path d="M39.627 73.0821C39.4333 73.0821 39.2881 73.227 39.282 73.4081C39.2094 74.4347 39.1731 76.8319 37.448 76.8319C37.0788 76.8319 36.7762 76.8077 36.4433 76.7594C35.9772 75.5155 35.8441 73.8731 35.8441 71.9589C35.8441 69.1813 35.9651 67.243 37.7023 67.243C37.9686 67.243 38.3499 67.2671 38.592 67.3154C38.937 68.1185 39.0096 69.5073 39.0581 70.2259C39.0702 70.4191 39.1912 70.5278 39.3728 70.5278C40.9465 70.5278 41.0615 67.8589 40.5712 65.9568C40.4623 65.5764 40.2565 65.3952 39.8873 65.3228C39.1912 65.202 38.4225 65.1416 37.7386 65.1416C33.9012 65.1416 33.4533 68.5533 33.4896 71.965C33.4896 74.3199 33.8164 76.5119 34.567 78.1905C34.7001 78.5347 34.912 78.6917 35.2751 78.7521C35.8865 78.8608 36.7157 78.9453 37.5328 78.9453C41.7092 78.9453 41.5034 73.0941 39.6331 73.0941L39.627 73.0821Z" fill="#A1A1A1"/>
<path d="M49.4264 65.1843C49.2932 65.1722 49.1601 65.1602 49.033 65.1602C47.8224 65.1602 47.2716 65.8304 46.8601 67.1347L46.2003 69.2421C45.9219 70.1418 45.6737 70.8 44.9171 70.8H44.4148V65.6915C44.4148 65.4017 44.2695 65.2628 43.985 65.2628H42.6776C42.3871 65.2628 42.2479 65.4077 42.2479 65.6915V78.3902C42.2479 78.6801 42.3932 78.8189 42.6776 78.8189H43.985C44.2755 78.8189 44.4148 78.674 44.4148 78.3902V72.8591H44.9171C45.6737 72.8591 45.9824 73.5897 46.2003 74.5015L46.7632 76.8263C47.1082 78.2393 47.768 78.9216 48.9846 78.9216C49.1298 78.9216 49.2751 78.9095 49.4264 78.8974C49.6927 78.8612 49.8077 78.7042 49.8077 78.4325V77.261C49.8077 76.9833 49.6261 76.8323 49.4385 76.8323C49.0935 76.8323 48.7909 76.5183 48.6819 76.1017L48.0585 73.6501C47.8285 72.7504 47.4835 72.1284 46.8358 71.7842V71.5427C47.5077 71.3012 47.7498 70.8725 47.9738 70.1177L48.6093 67.9982C48.7303 67.5936 48.9785 67.2675 49.4506 67.2675C49.6564 67.2675 49.8077 67.1468 49.8077 66.8388V65.6674C49.8077 65.3896 49.6867 65.2387 49.4264 65.2024V65.1843Z" fill="#A1A1A1"/>
<path d="M64.5703 66.5972C64.8608 66.5972 65 66.4523 65 66.1685V65.6914C65 65.4016 64.8547 65.2627 64.5703 65.2627H59.5768C59.2862 65.2627 59.147 65.4076 59.147 65.6914V78.3901C59.147 78.68 59.2923 78.8188 59.5768 78.8188H64.5703C64.8608 78.8188 65 78.6739 65 78.3901V77.9372C65 77.6474 64.8547 77.5085 64.5703 77.5085H60.527V72.5148H63.7047C63.9952 72.5148 64.1345 72.3699 64.1345 72.0861V71.6332C64.1345 71.3433 63.9892 71.2045 63.7047 71.2045H60.527V66.6092H64.5703V66.5972Z" fill="#A1A1A1"/>
<path d="M56.1328 71.8026V71.5611C57.1738 71.0357 57.5612 69.8522 57.5612 68.7593C57.5612 66.7123 56.1328 65.251 54.0083 65.251H51.4661C51.1756 65.251 51.0364 65.3959 51.0364 65.6797V78.3784C51.0364 78.6682 51.1816 78.8071 51.4661 78.8071H54.1172C56.502 78.8071 57.9304 77.1103 57.9304 74.9788C57.9304 73.6987 57.4159 72.2495 56.1328 71.7966V71.8026ZM53.9598 77.2492H52.7614V66.8391H53.8388C55.0977 66.8391 55.8664 67.6663 55.8664 69.0552C55.8664 70.287 55.3762 70.9814 54.6559 71.1263C54.1656 71.235 53.984 71.5188 53.984 71.869C53.984 72.2374 54.2262 72.5634 54.6317 72.6118C55.4851 72.7084 56.1812 73.3786 56.1812 74.8037C56.1812 76.2287 55.352 77.2553 53.9598 77.2553V77.2492Z" fill="#A1A1A1"/>
<path d="M6.74271 71.8509V71.6094C7.88062 70.9633 8.21957 69.7677 8.21957 68.7472C8.21957 66.6519 6.67008 65.251 4.30953 65.251H0.429742C0.139212 65.251 0 65.3959 0 65.6797V78.3784C0 78.6682 0.145265 78.8071 0.429742 78.8071H4.52137C6.75482 78.8071 8.45563 77.1888 8.45563 74.9063C8.45563 73.6745 8.0501 72.3461 6.74271 71.8449V71.8509ZM3.93426 75.957H3.41978V68.1192H3.77689C4.49716 68.1192 4.81795 68.7653 4.81795 69.5563C4.81795 70.0334 4.67269 70.5708 4.40032 70.8365C4.12189 71.1142 3.86163 71.3618 3.86163 71.8751C3.86163 72.3883 4.10373 72.7023 4.44874 72.9378C4.85427 73.2035 4.99953 73.8496 4.99953 74.3387C4.99953 75.1901 4.65453 75.957 3.93426 75.957Z" fill="#A1A1A1"/>
<path d="M12.9589 63.2943V61.1507H17.3047V63.2943C17.3047 63.5842 17.45 63.723 17.7344 63.723H19.7621C20.0526 63.723 20.1918 63.5781 20.1918 63.2943V58.8199C20.1918 58.53 20.0466 58.3912 19.7621 58.3912H19.1266V48.0293C19.1266 47.7395 18.9813 47.6006 18.6968 47.6006H13.6125C12.5594 47.6006 11.8633 48.0655 11.7786 49.2551L11.3004 55.6195C11.1915 57.0567 11.1067 58.3972 10.2472 58.3972C10.1141 58.3972 10.0536 58.53 10.0536 58.8259V63.3003C10.0536 63.5902 10.1988 63.7291 10.4833 63.7291H12.5352C12.8257 63.7291 12.9649 63.5842 12.9649 63.3003L12.9589 63.2943ZM12.741 58.1013C13.7397 57.8839 14.0483 56.9903 14.1331 55.686L14.4599 50.8251C14.4841 50.4809 14.6415 50.348 15.0107 50.348H16.0639V58.3912H12.7289L12.741 58.1013Z" fill="#A1A1A1"/>
<path d="M7.63246 55.1786C7.41456 55.1786 7.25114 55.3235 7.23904 55.5349C7.22693 55.6919 7.22693 55.8911 7.21483 56.1085C7.21483 57.0565 7.20272 58.1797 5.99218 58.1797C5.68954 58.1797 5.45349 58.1555 5.19927 58.0951C4.83006 56.8512 4.73322 55.7281 4.73322 54.291C4.73322 52.1836 4.83006 50.5592 6.02849 50.5592C6.2706 50.5592 6.3735 50.5834 6.57929 50.6438C6.96061 51.4469 7.04535 52.1534 7.10588 52.8719C7.11798 53.0652 7.26325 53.1739 7.47509 53.1739C9.26064 53.1739 9.73275 50.36 9.1759 48.2888C9.06695 47.9084 8.84906 47.7393 8.46773 47.6789C7.72325 47.5461 6.97877 47.4736 6.09507 47.4736C1.88239 47.4736 1.15001 50.837 1.19844 54.297C1.23475 56.664 1.55555 58.856 2.42108 60.5467C2.57845 60.8728 2.7903 61.0117 3.15346 61.072C3.8132 61.1928 4.71506 61.2773 5.75612 61.2773C10.7375 61.2773 10.3501 55.1846 7.62641 55.1846L7.63246 55.1786Z" fill="#A1A1A1"/>
<path d="M30.3543 65.3167C29.6704 65.1718 28.829 65.0752 28.1814 65.0752C23.8719 65.0752 23.66 68.6801 23.66 72.122C23.66 74.489 24.0656 76.6568 24.7979 78.1905C24.9432 78.5166 25.1551 78.6796 25.5061 78.7521C26.1659 78.897 27.0193 78.9936 27.8243 78.9936C32.0007 78.9936 32.2004 75.2982 32.2004 71.8865C32.2004 69.9482 31.8433 67.4362 31.0383 65.8179C30.9051 65.5281 30.6993 65.3892 30.3543 65.3167ZM27.9453 76.3971C27.564 76.3971 27.2493 76.3488 27.0677 76.2884C26.7106 75.3163 26.4927 73.704 26.4927 72.122C26.4927 69.0605 26.759 67.6596 28.0906 67.6596C28.2964 67.6596 28.5567 67.6838 28.823 67.7321C29.0893 68.3299 29.3738 70.1837 29.3738 71.9227C29.3738 74.9057 29.1317 76.3971 27.9453 76.3971Z" fill="#A1A1A1"/>
<path d="M21.7413 65.2568H19.9921C18.8057 65.2568 18.1218 65.8546 17.8797 67.0502L17.111 70.9389H16.8568L16.076 67.0502C15.8339 65.8667 15.1499 65.2568 13.9636 65.2568H12.178C11.8875 65.2568 11.7483 65.4018 11.7483 65.6856V78.3843C11.7483 78.6741 11.8936 78.813 12.178 78.813H14.121C14.4115 78.813 14.5507 78.6681 14.5507 78.3843V69.538H14.8049L15.7673 73.7528C15.9126 74.3869 16.2818 74.8156 16.9294 74.8156C17.577 74.8156 17.9584 74.3989 18.1157 73.7649L19.1326 69.538H19.3989V78.3843C19.3989 78.6741 19.5442 78.813 19.8287 78.813H21.7353C22.0258 78.813 22.165 78.6681 22.165 78.3843V65.6856C22.165 65.3957 22.0197 65.2568 21.7353 65.2568H21.7413Z" fill="#A1A1A1"/>
</g>
<defs>
<clipPath id="clip0_148_757">
<rect width="65" height="79" fill="white"/>
</clipPath>
</defs>
</svg>
