<svg width="39" height="39" viewBox="0 0 39 39" fill="none" xmlns="http://www.w3.org/2000/svg">
<path opacity="0.4" d="M32.6629 11.2775C32.6629 12.155 32.1917 12.9512 31.4442 13.3574L28.6166 14.8849L26.2117 16.1687L21.2229 18.8662C20.6866 19.1587 20.1017 19.305 19.5004 19.305C18.8992 19.305 18.3142 19.1587 17.7779 18.8662L7.55664 13.3574C6.80914 12.9512 6.33789 12.155 6.33789 11.2775C6.33789 10.4 6.80914 9.60367 7.55664 9.19742L10.7579 7.47493L13.3092 6.09372L17.7779 3.68875C18.8504 3.10375 20.1504 3.10375 21.2229 3.68875L31.4442 9.19742C32.1917 9.60367 32.6629 10.4 32.6629 11.2775Z" fill="#0E131A"/>
<path opacity="0.4" d="M16.0874 20.7837L6.58115 16.0225C5.8499 15.6488 5.00491 15.6975 4.30616 16.12C3.60741 16.5425 3.20117 17.29 3.20117 18.1025V27.0887C3.20117 28.6487 4.0624 30.0462 5.4599 30.745L14.9662 35.4901C15.2912 35.6526 15.6487 35.7338 16.0062 35.7338C16.4287 35.7338 16.8512 35.6201 17.2249 35.3763C17.9237 34.9538 18.3299 34.2063 18.3299 33.3938V24.4076C18.3462 22.8801 17.4849 21.4825 16.0874 20.7837Z" fill="#0E131A"/>
<path opacity="0.4" d="M35.7993 18.1188V27.105C35.7993 28.6488 34.9381 30.0463 33.5406 30.745L24.0343 35.5062C23.7093 35.6687 23.3518 35.75 22.9943 35.75C22.5718 35.75 22.1493 35.6363 21.7593 35.3926C21.0768 34.9701 20.6543 34.2225 20.6543 33.41V24.44C20.6543 22.88 21.5156 21.4825 22.9131 20.7837L26.4068 19.045L28.8443 17.8262L32.4193 16.0388C33.1506 15.665 33.9956 15.6975 34.6943 16.1363C35.3768 16.5588 35.7993 17.3063 35.7993 18.1188Z" fill="#0E131A"/>
<path d="M28.6165 14.885L26.2116 16.1688L10.7578 7.47496L13.3091 6.09375L28.2266 14.5112C28.3891 14.6087 28.519 14.7387 28.6165 14.885Z" fill="#0E131A"/>
<path d="M28.8438 17.8262V21.515C28.8438 22.1812 28.2912 22.7337 27.625 22.7337C26.9588 22.7337 26.4062 22.1812 26.4062 21.515V19.0449L28.8438 17.8262Z" fill="#0E131A"/>
</svg>
