<svg width="22" height="22" viewBox="0 0 22 22" fill="none" xmlns="http://www.w3.org/2000/svg">
<path opacity="0.4" d="M11.4582 6.79249V20.1667H3.73983C2.6765 20.1667 1.80566 19.3142 1.80566 18.2692V4.66583C1.80566 2.26416 3.60233 1.17333 5.79316 2.24583L9.854 4.25333C10.734 4.68416 11.4582 5.82999 11.4582 6.79249Z" fill="#848B8C"/>
<path d="M8.22283 8.9375H5.04199C4.66616 8.9375 4.35449 8.62583 4.35449 8.25C4.35449 7.87417 4.66616 7.5625 5.04199 7.5625H8.22283C8.59866 7.5625 8.91033 7.87417 8.91033 8.25C8.91033 8.62583 8.60783 8.9375 8.22283 8.9375Z" fill="#848B8C"/>
<path d="M8.22283 12.6042H5.04199C4.66616 12.6042 4.35449 12.2925 4.35449 11.9167C4.35449 11.5409 4.66616 11.2292 5.04199 11.2292H8.22283C8.59866 11.2292 8.91033 11.5409 8.91033 11.9167C8.91033 12.2925 8.60783 12.6042 8.22283 12.6042Z" fill="#848B8C"/>
<path opacity="0.6" d="M20.1663 13.7958V17.875C20.1663 19.14 19.1397 20.1666 17.8747 20.1666H11.458V9.55164L11.8888 9.6433L15.5922 10.4683L16.0322 10.5691L17.9022 10.9908C18.3513 11.0825 18.7638 11.2383 19.1213 11.4675C19.1213 11.4766 19.1305 11.4766 19.1305 11.4766C19.2222 11.5408 19.3138 11.6141 19.3963 11.6966C19.818 12.1183 20.093 12.7325 20.1572 13.6308C20.1572 13.6858 20.1663 13.7408 20.1663 13.7958Z" fill="#848B8C"/>
<path d="M11.458 9.55164V15.0516C11.8797 15.6108 12.5397 15.9683 13.2913 15.9683C14.5655 15.9683 15.5922 14.9416 15.5922 13.6766V10.4775L11.8888 9.65247L11.458 9.55164Z" fill="#848B8C"/>
<path d="M20.1578 13.6308C20.0936 12.7325 19.8186 12.1183 19.3969 11.6967C19.3144 11.6142 19.2228 11.5408 19.1311 11.4767C19.1311 11.4767 19.1219 11.4767 19.1219 11.4675C18.7644 11.2383 18.3519 11.0825 17.9028 10.9908L16.0328 10.5692L15.5928 10.4683V13.6767C15.5928 14.9325 16.6103 15.9683 17.8844 15.9683C19.1128 15.9683 20.0936 15.0058 20.1669 13.805V13.7958C20.1669 13.7408 20.1578 13.6858 20.1578 13.6308Z" fill="#848B8C"/>
</svg>
