<svg width="39" height="39" viewBox="0 0 39 39" fill="none" xmlns="http://www.w3.org/2000/svg">
<path d="M27.2181 5.785V3.25C27.2181 2.58375 26.6656 2.03125 25.9994 2.03125C25.3331 2.03125 24.7806 2.58375 24.7806 3.25V5.6875H14.2181V3.25C14.2181 2.58375 13.6656 2.03125 12.9994 2.03125C12.3331 2.03125 11.7806 2.58375 11.7806 3.25V5.785C7.39314 6.19125 5.2644 8.8075 4.9394 12.6912C4.9069 13.1625 5.2969 13.5525 5.7519 13.5525H33.2469C33.7181 13.5525 34.1081 13.1462 34.0594 12.6912C33.7344 8.8075 31.6056 6.19125 27.2181 5.785Z" fill="#0E131A"/>
<path opacity="0.4" d="M32.5 15.99C33.3937 15.99 34.125 16.7212 34.125 17.615V27.625C34.125 32.5 31.6875 35.75 26 35.75H13C7.3125 35.75 4.875 32.5 4.875 27.625V17.615C4.875 16.7212 5.60625 15.99 6.5 15.99H32.5Z" fill="#0E131A"/>
<path d="M13.8125 24.375C13.39 24.375 12.9675 24.1962 12.6588 23.9037C12.3663 23.595 12.1875 23.1725 12.1875 22.75C12.1875 22.3275 12.3663 21.905 12.6588 21.5962C13.1138 21.1412 13.8288 20.995 14.43 21.255C14.6413 21.3362 14.82 21.45 14.9662 21.5962C15.2587 21.905 15.4375 22.3275 15.4375 22.75C15.4375 23.1725 15.2587 23.595 14.9662 23.9037C14.6575 24.1962 14.235 24.375 13.8125 24.375Z" fill="#0E131A"/>
<path d="M19.5 24.375C19.0775 24.375 18.655 24.1962 18.3463 23.9037C18.0538 23.595 17.875 23.1725 17.875 22.75C17.875 22.3275 18.0538 21.905 18.3463 21.5962C18.4925 21.45 18.6712 21.3362 18.8825 21.255C19.4837 20.995 20.1987 21.1412 20.6537 21.5962C20.9462 21.905 21.125 22.3275 21.125 22.75C21.125 23.1725 20.9462 23.595 20.6537 23.9037C20.5725 23.9687 20.4913 24.0337 20.41 24.0987C20.3125 24.1637 20.215 24.2125 20.1175 24.245C20.02 24.2937 19.9225 24.3262 19.825 24.3425C19.7113 24.3587 19.6137 24.375 19.5 24.375Z" fill="#0E131A"/>
<path d="M25.1875 24.375C24.765 24.375 24.3425 24.1963 24.0338 23.9038C23.7413 23.595 23.5625 23.1725 23.5625 22.75C23.5625 22.3275 23.7413 21.905 24.0338 21.5963C24.1963 21.45 24.3587 21.3362 24.57 21.255C24.8625 21.125 25.1875 21.0925 25.5125 21.1575C25.61 21.1738 25.7075 21.2062 25.805 21.255C25.9025 21.2875 26 21.3363 26.0975 21.4013C26.1788 21.4663 26.26 21.5313 26.3412 21.5963C26.6337 21.905 26.8125 22.3275 26.8125 22.75C26.8125 23.1725 26.6337 23.595 26.3412 23.9038C26.26 23.9688 26.1788 24.0337 26.0975 24.0987C26 24.1637 25.9025 24.2125 25.805 24.245C25.7075 24.2938 25.61 24.3263 25.5125 24.3425C25.3988 24.3588 25.285 24.375 25.1875 24.375Z" fill="#0E131A"/>
<path d="M13.8125 30.0625C13.6013 30.0625 13.39 30.0138 13.195 29.9325C12.9837 29.8513 12.8213 29.7375 12.6588 29.5913C12.3663 29.2825 12.1875 28.86 12.1875 28.4375C12.1875 28.015 12.3663 27.5925 12.6588 27.2838C12.8213 27.1375 12.9837 27.0237 13.195 26.9425C13.4875 26.8125 13.8125 26.78 14.1375 26.845C14.235 26.8613 14.3325 26.8937 14.43 26.9425C14.5275 26.975 14.625 27.0238 14.7225 27.0888C14.8038 27.1538 14.885 27.2188 14.9662 27.2838C15.2587 27.5925 15.4375 28.015 15.4375 28.4375C15.4375 28.86 15.2587 29.2825 14.9662 29.5913C14.885 29.6563 14.8038 29.7375 14.7225 29.7862C14.625 29.8512 14.5275 29.9 14.43 29.9325C14.3325 29.9813 14.235 30.0138 14.1375 30.03C14.0238 30.0463 13.9262 30.0625 13.8125 30.0625Z" fill="#0E131A"/>
<path d="M19.5 30.0625C19.0775 30.0625 18.655 29.8837 18.3463 29.5912C18.0538 29.2825 17.875 28.86 17.875 28.4375C17.875 28.015 18.0538 27.5925 18.3463 27.2838C18.9475 26.6825 20.0525 26.6825 20.6537 27.2838C20.9462 27.5925 21.125 28.015 21.125 28.4375C21.125 28.86 20.9462 29.2825 20.6537 29.5912C20.345 29.8837 19.9225 30.0625 19.5 30.0625Z" fill="#0E131A"/>
<path d="M25.1875 30.0625C24.765 30.0625 24.3425 29.8837 24.0338 29.5912C23.7413 29.2825 23.5625 28.86 23.5625 28.4375C23.5625 28.015 23.7413 27.5925 24.0338 27.2838C24.635 26.6825 25.74 26.6825 26.3412 27.2838C26.6337 27.5925 26.8125 28.015 26.8125 28.4375C26.8125 28.86 26.6337 29.2825 26.3412 29.5912C26.0325 29.8837 25.61 30.0625 25.1875 30.0625Z" fill="#0E131A"/>
</svg>
