<svg width="37" height="37" viewBox="0 0 37 37" fill="none" xmlns="http://www.w3.org/2000/svg">
<path d="M27.1648 16.5729C26.5019 16.5729 25.9777 16.0333 25.9777 15.3858C25.9777 14.8154 25.4073 13.6283 24.4515 12.5954C23.5111 11.5933 22.4782 11.0075 21.6148 11.0075C20.9519 11.0075 20.4277 10.4679 20.4277 9.82038C20.4277 9.17288 20.9673 8.6333 21.6148 8.6333C23.1565 8.6333 24.7752 9.4658 26.1936 10.9612C27.5194 12.3641 28.3673 14.1062 28.3673 15.3704C28.3673 16.0333 27.8277 16.5729 27.1648 16.5729Z" fill="white"/>
<path d="M32.7304 16.5731C32.0675 16.5731 31.5434 16.0335 31.5434 15.386C31.5434 9.91308 27.0879 5.47308 21.6304 5.47308C20.9675 5.47308 20.4434 4.9335 20.4434 4.286C20.4434 3.6385 20.9675 3.0835 21.615 3.0835C28.3984 3.0835 33.9175 8.60266 33.9175 15.386C33.9175 16.0335 33.3779 16.5731 32.7304 16.5731Z" fill="white"/>
<path opacity="0.4" d="M18.1769 21.9072L13.1357 26.9485C12.5807 26.4552 12.0411 25.9464 11.5169 25.4222C9.92898 23.8189 8.49523 22.1385 7.21565 20.381C5.95148 18.6235 4.93398 16.866 4.19398 15.1239C3.45398 13.3664 3.08398 11.686 3.08398 10.0827C3.08398 9.03433 3.26898 8.03225 3.63898 7.10725C4.00898 6.16683 4.59482 5.3035 5.4119 4.53266C6.39857 3.56141 7.47773 3.0835 8.61857 3.0835C9.05023 3.0835 9.4819 3.176 9.86732 3.361C10.2682 3.546 10.6227 3.8235 10.9002 4.22433L14.4769 9.26558C14.7544 9.651 14.9548 10.0056 15.0936 10.3447C15.2323 10.6685 15.3094 10.9922 15.3094 11.2852C15.3094 11.6552 15.2015 12.0252 14.9857 12.3797C14.7852 12.7343 14.4923 13.1043 14.1223 13.4743L12.9507 14.6922C12.7811 14.8618 12.704 15.0622 12.704 15.3089C12.704 15.4322 12.7194 15.5402 12.7502 15.6635C12.7965 15.7868 12.8427 15.8793 12.8736 15.9718C13.1511 16.4806 13.629 17.1435 14.3073 17.9452C15.0011 18.7468 15.7411 19.5639 16.5427 20.381C17.0977 20.9206 17.6373 21.4447 18.1769 21.9072Z" fill="white"/>
<path d="M33.8712 28.2588C33.8712 28.6904 33.7941 29.1375 33.6399 29.5692C33.5937 29.6925 33.5474 29.8159 33.4858 29.9392C33.2237 30.4942 32.8845 31.0184 32.4375 31.5117C31.682 32.3442 30.8495 32.9454 29.9091 33.3309C29.8937 33.3309 29.8783 33.3463 29.8629 33.3463C28.9533 33.7163 27.9666 33.9167 26.9029 33.9167C25.3304 33.9167 23.6499 33.5467 21.877 32.7913C20.1041 32.0359 18.3312 31.0184 16.5737 29.7388C15.9724 29.2917 15.3712 28.8446 14.8008 28.3667L19.842 23.3254C20.2737 23.6492 20.6591 23.8959 20.9829 24.0654C21.0599 24.0963 21.1524 24.1425 21.2604 24.1888C21.3837 24.235 21.507 24.2504 21.6458 24.2504C21.9079 24.2504 22.1083 24.1579 22.2779 23.9884L23.4495 22.8321C23.8349 22.4467 24.2049 22.1538 24.5595 21.9688C24.9141 21.7529 25.2687 21.645 25.6541 21.645C25.947 21.645 26.2554 21.7067 26.5945 21.8454C26.9337 21.9842 27.2883 22.1846 27.6737 22.4467L32.7766 26.0696C33.1774 26.3471 33.4549 26.6709 33.6245 27.0563C33.7787 27.4417 33.8712 27.8271 33.8712 28.2588Z" fill="white"/>
</svg>
