<svg width="37" height="37" viewBox="0 0 37 37" fill="none" xmlns="http://www.w3.org/2000/svg">
<path d="M27.1648 16.5729C26.5019 16.5729 25.9777 16.0333 25.9777 15.3858C25.9777 14.8154 25.4073 13.6283 24.4515 12.5954C23.5111 11.5933 22.4782 11.0075 21.6148 11.0075C20.9519 11.0075 20.4277 10.4679 20.4277 9.82041C20.4277 9.17291 20.9673 8.63333 21.6148 8.63333C23.1565 8.63333 24.7752 9.46583 26.1936 10.9612C27.5194 12.3642 28.3673 14.1062 28.3673 15.3704C28.3673 16.0333 27.8277 16.5729 27.1648 16.5729Z" fill="#00B4A0"/>
<path d="M32.7304 16.5729C32.0675 16.5729 31.5434 16.0333 31.5434 15.3858C31.5434 9.91293 27.0879 5.47293 21.6304 5.47293C20.9675 5.47293 20.4434 4.93334 20.4434 4.28584C20.4434 3.63834 20.9675 3.08334 21.615 3.08334C28.3984 3.08334 33.9175 8.60251 33.9175 15.3858C33.9175 16.0333 33.3779 16.5729 32.7304 16.5729Z" fill="#00B4A0"/>
<path opacity="0.4" d="M18.1769 21.9071L13.1357 26.9483C12.5807 26.455 12.0411 25.9463 11.5169 25.4221C9.92898 23.8188 8.49523 22.1383 7.21565 20.3808C5.95148 18.6233 4.93398 16.8658 4.19398 15.1238C3.45398 13.3663 3.08398 11.6858 3.08398 10.0825C3.08398 9.03418 3.26898 8.03209 3.63898 7.10709C4.00898 6.16668 4.59482 5.30334 5.4119 4.53251C6.39857 3.56126 7.47773 3.08334 8.61857 3.08334C9.05023 3.08334 9.4819 3.17584 9.86732 3.36084C10.2682 3.54584 10.6227 3.82334 10.9002 4.22418L14.4769 9.26543C14.7544 9.65084 14.9548 10.0054 15.0936 10.3446C15.2323 10.6683 15.3094 10.9921 15.3094 11.285C15.3094 11.655 15.2015 12.025 14.9857 12.3796C14.7852 12.7342 14.4923 13.1042 14.1223 13.4742L12.9507 14.6921C12.7811 14.8617 12.704 15.0621 12.704 15.3088C12.704 15.4321 12.7194 15.54 12.7502 15.6633C12.7965 15.7867 12.8427 15.8792 12.8736 15.9717C13.1511 16.4804 13.629 17.1433 14.3073 17.945C15.0011 18.7467 15.7411 19.5638 16.5427 20.3808C17.0977 20.9204 17.6373 21.4446 18.1769 21.9071Z" fill="#00B4A0"/>
<path d="M33.8712 28.2587C33.8712 28.6904 33.7941 29.1375 33.6399 29.5692C33.5937 29.6925 33.5474 29.8158 33.4858 29.9392C33.2237 30.4942 32.8845 31.0183 32.4375 31.5117C31.682 32.3442 30.8495 32.9454 29.9091 33.3308C29.8937 33.3308 29.8783 33.3462 29.8629 33.3462C28.9533 33.7162 27.9666 33.9167 26.9029 33.9167C25.3304 33.9167 23.6499 33.5467 21.877 32.7912C20.1041 32.0358 18.3312 31.0183 16.5737 29.7387C15.9724 29.2917 15.3712 28.8446 14.8008 28.3667L19.842 23.3254C20.2737 23.6492 20.6591 23.8958 20.9829 24.0654C21.0599 24.0962 21.1524 24.1425 21.2604 24.1887C21.3837 24.235 21.507 24.2504 21.6458 24.2504C21.9079 24.2504 22.1083 24.1579 22.2779 23.9883L23.4495 22.8321C23.8349 22.4467 24.2049 22.1537 24.5595 21.9687C24.9141 21.7529 25.2687 21.645 25.6541 21.645C25.947 21.645 26.2554 21.7067 26.5945 21.8454C26.9337 21.9842 27.2883 22.1846 27.6737 22.4467L32.7766 26.0696C33.1774 26.3471 33.4549 26.6708 33.6245 27.0562C33.7787 27.4417 33.8712 27.8271 33.8712 28.2587Z" fill="#00B4A0"/>
</svg>
