<svg width="39" height="39" viewBox="0 0 39 39" fill="none" xmlns="http://www.w3.org/2000/svg">
<path d="M35.75 35.75H3.25C2.58375 35.75 2.03125 35.1975 2.03125 34.5312C2.03125 33.865 2.58375 33.3125 3.25 33.3125H35.75C36.4162 33.3125 36.9688 33.865 36.9688 34.5312C36.9688 35.1975 36.4162 35.75 35.75 35.75Z" fill="#0E131A"/>
<path d="M15.8438 6.5V35.75H23.1562V6.5C23.1562 4.7125 22.425 3.25 20.2312 3.25H18.7688C16.575 3.25 15.8438 4.7125 15.8438 6.5Z" fill="#0E131A"/>
<path opacity="0.4" d="M4.875 16.25V35.75H11.375V16.25C11.375 14.4625 10.725 13 8.775 13H7.475C5.525 13 4.875 14.4625 4.875 16.25Z" fill="#0E131A"/>
<path opacity="0.4" d="M27.625 24.375V35.75H34.125V24.375C34.125 22.5875 33.475 21.125 31.525 21.125H30.225C28.275 21.125 27.625 22.5875 27.625 24.375Z" fill="#0E131A"/>
</svg>
