<svg width="26" height="26" viewBox="0 0 26 26" fill="none" xmlns="http://www.w3.org/2000/svg">
<path opacity="0.4" d="M22.209 11.0392H19.0781C16.5107 11.0392 14.4198 8.94841 14.4198 6.38091V3.25008C14.4198 2.65425 13.9323 2.16675 13.3365 2.16675H8.74315C5.40648 2.16675 2.70898 4.33342 2.70898 8.20092V17.7992C2.70898 21.6667 5.40648 23.8334 8.74315 23.8334H17.2582C20.5948 23.8334 23.2923 21.6667 23.2923 17.7992V12.1226C23.2923 11.5267 22.8048 11.0392 22.209 11.0392Z" fill="#00B4A0"/>
<path d="M17.1157 2.39408C16.6715 1.94991 15.9023 2.25324 15.9023 2.87074V6.65158C15.9023 8.23324 17.2457 9.54408 18.8815 9.54408C19.9107 9.55491 21.3407 9.55491 22.5648 9.55491C23.1823 9.55491 23.5073 8.82908 23.074 8.39574C21.514 6.82491 18.719 3.99741 17.1157 2.39408Z" fill="#00B4A0"/>
<path d="M14.625 14.8958H8.125C7.68083 14.8958 7.3125 14.5274 7.3125 14.0833C7.3125 13.6391 7.68083 13.2708 8.125 13.2708H14.625C15.0692 13.2708 15.4375 13.6391 15.4375 14.0833C15.4375 14.5274 15.0692 14.8958 14.625 14.8958Z" fill="#00B4A0"/>
<path d="M12.4583 19.2292H8.125C7.68083 19.2292 7.3125 18.8609 7.3125 18.4167C7.3125 17.9726 7.68083 17.6042 8.125 17.6042H12.4583C12.9025 17.6042 13.2708 17.9726 13.2708 18.4167C13.2708 18.8609 12.9025 19.2292 12.4583 19.2292Z" fill="#00B4A0"/>
</svg>
