<svg width="48" height="48" viewBox="0 0 48 48" fill="none" xmlns="http://www.w3.org/2000/svg">
<rect width="48" height="48" rx="24" fill="#F3F3F3"/>
<path opacity="0.4" d="M32.5 22.19H29.61C27.24 22.19 25.31 20.26 25.31 17.89V15C25.31 14.45 24.86 14 24.31 14H20.07C16.99 14 14.5 16 14.5 19.57V28.43C14.5 32 16.99 34 20.07 34H27.93C31.01 34 33.5 32 33.5 28.43V23.19C33.5 22.64 33.05 22.19 32.5 22.19Z" fill="#A8A8A8"/>
<path d="M27.8 14.21C27.39 13.8 26.68 14.08 26.68 14.65V18.14C26.68 19.6 27.92 20.81 29.43 20.81C30.38 20.82 31.7 20.82 32.83 20.82C33.4 20.82 33.7 20.15 33.3 19.75C31.86 18.3 29.28 15.69 27.8 14.21Z" fill="#A8A8A8"/>
<path d="M24.28 26.72C23.99 26.43 23.51 26.43 23.22 26.72L22.5 27.44V23.25C22.5 22.84 22.16 22.5 21.75 22.5C21.34 22.5 21 22.84 21 23.25V27.44L20.28 26.72C19.99 26.43 19.51 26.43 19.22 26.72C18.93 27.01 18.93 27.49 19.22 27.78L21.22 29.78C21.23 29.79 21.24 29.79 21.24 29.8C21.3 29.86 21.38 29.91 21.46 29.95C21.56 29.98 21.65 30 21.75 30C21.85 30 21.94 29.98 22.03 29.94C22.12 29.9 22.2 29.85 22.28 29.78L24.28 27.78C24.57 27.49 24.57 27.01 24.28 26.72Z" fill="#A8A8A8"/>
</svg>
