<svg width="297" height="73" viewBox="0 0 297 73" fill="none" xmlns="http://www.w3.org/2000/svg">
<rect width="76" height="73" rx="15" fill="#D9D9D9"/>
<path d="M96.6013 43.0028L96.6004 29.4028L99.0404 29.4027L99.0408 35.0227L105.661 35.0222L105.66 29.4022L108.1 29.402L108.101 43.002L105.661 43.0022L105.661 37.2822L99.0409 37.2827L99.0413 43.0027L96.6013 43.0028ZM116.888 43.0014L116.888 41.9014C116.582 42.3148 116.175 42.6348 115.668 42.8615C115.175 43.0882 114.608 43.2016 113.968 43.2016C112.995 43.2017 112.195 42.9484 111.568 42.4418C110.942 41.9352 110.628 41.2285 110.628 40.3219C110.628 39.3219 110.955 38.5952 111.608 38.1418C112.275 37.6751 113.168 37.415 114.288 37.3616C114.741 37.3349 115.175 37.3282 115.588 37.3415C116.001 37.3415 116.401 37.3481 116.788 37.3614L116.788 36.6014C116.788 36.0414 116.621 35.6348 116.288 35.3815C115.954 35.1282 115.521 35.0015 114.988 35.0016C114.454 35.0016 114.034 35.1349 113.728 35.4016C113.421 35.6683 113.201 36.0283 113.068 36.4817L110.948 36.1218C111.121 35.2552 111.554 34.5418 112.248 33.9817C112.941 33.4084 113.868 33.1216 115.028 33.1215C116.174 33.1215 117.128 33.3881 117.888 33.9214C118.648 34.4413 119.028 35.3413 119.028 36.6213L119.028 43.0013L116.888 43.0014ZM116.788 38.9014C116.468 38.8881 116.115 38.8881 115.728 38.9015C115.341 38.9015 114.961 38.9082 114.588 38.9216C114.068 38.9349 113.655 39.0483 113.348 39.2617C113.055 39.475 112.908 39.7817 112.908 40.1817C112.908 40.5817 113.048 40.895 113.328 41.1217C113.608 41.335 113.982 41.4416 114.448 41.4416C115.128 41.4415 115.688 41.2815 116.128 40.9615C116.568 40.6281 116.788 40.1948 116.788 39.6614L116.788 38.9014ZM125.414 41.3608C126.094 41.3608 126.607 41.2474 126.954 41.0207C127.301 40.7807 127.474 40.474 127.474 40.1007C127.474 39.714 127.341 39.4207 127.074 39.2207C126.821 39.0207 126.374 38.9208 125.734 38.9208L124.174 38.9209L124.174 37.2809L125.754 37.2808C126.314 37.2808 126.707 37.1807 126.934 36.9807C127.174 36.7807 127.294 36.514 127.294 36.1807C127.294 35.8207 127.147 35.5274 126.854 35.3007C126.574 35.0741 126.127 34.9608 125.514 34.9608C124.834 34.9609 124.3 35.1076 123.914 35.4009C123.54 35.6943 123.287 36.1076 123.154 36.641L121.074 36.2611C121.287 35.2478 121.78 34.4744 122.554 33.941C123.327 33.3943 124.314 33.1209 125.514 33.1208C126.794 33.1207 127.774 33.3807 128.454 33.9006C129.147 34.4072 129.494 35.0872 129.494 35.9406C129.494 36.4072 129.361 36.8272 129.094 37.2006C128.841 37.5606 128.467 37.8273 127.974 38.0007C128.494 38.134 128.914 38.3806 129.234 38.7406C129.554 39.0872 129.714 39.5672 129.714 40.1805C129.714 41.1405 129.328 41.8872 128.554 42.4206C127.794 42.9407 126.748 43.2007 125.414 43.2008C124.094 43.2009 123.061 42.921 122.314 42.361C121.568 41.7878 121.127 40.9811 120.994 39.9411L123.094 39.661C123.174 40.1543 123.401 40.561 123.774 40.8809C124.147 41.2009 124.694 41.3609 125.414 41.3608ZM131.81 43.0004L131.809 33.3204L136.229 33.3201C137.336 33.32 138.189 33.5399 138.789 33.9799C139.403 34.4065 139.71 35.0465 139.71 35.8998C139.71 36.2732 139.616 36.6599 139.43 37.0599C139.256 37.4599 138.896 37.7666 138.35 37.9799C138.923 38.1532 139.336 38.4332 139.59 38.8199C139.843 39.1932 139.97 39.6665 139.97 40.2398C139.97 41.0932 139.697 41.7665 139.15 42.2599C138.603 42.7533 137.73 43 136.53 43.0001L131.81 43.0004ZM136.09 35.0601L134.03 35.0602L134.03 37.2802L136.17 37.2801C136.663 37.2801 137.023 37.1934 137.25 37.02C137.476 36.8467 137.59 36.5667 137.59 36.18C137.59 35.7933 137.476 35.5133 137.25 35.34C137.036 35.1534 136.65 35.0601 136.09 35.0601ZM136.37 38.9401L134.03 38.9402L134.03 41.2602L136.39 41.2601C136.923 41.26 137.297 41.1667 137.51 40.98C137.723 40.78 137.83 40.4933 137.83 40.12C137.83 39.7066 137.716 39.4066 137.49 39.22C137.263 39.0333 136.89 38.94 136.37 38.9401ZM147.904 42.9993L147.904 41.8993C147.597 42.3126 147.191 42.6327 146.684 42.8594C146.191 43.0861 145.624 43.1994 144.984 43.1995C144.011 43.1995 143.211 42.9463 142.584 42.4396C141.957 41.933 141.644 41.2264 141.644 40.3197C141.644 39.3197 141.97 38.593 142.624 38.1396C143.29 37.6729 144.184 37.4129 145.304 37.3595C145.757 37.3328 146.19 37.3261 146.604 37.3394C147.017 37.3393 147.417 37.346 147.804 37.3593L147.804 36.5993C147.803 36.0393 147.637 35.6326 147.303 35.3793C146.97 35.126 146.537 34.9994 146.003 34.9994C145.47 34.9994 145.05 35.1328 144.743 35.3995C144.437 35.6662 144.217 36.0262 144.084 36.4795L141.963 36.1197C142.137 35.253 142.57 34.5396 143.263 33.9796C143.957 33.4062 144.883 33.1195 146.043 33.1194C147.19 33.1193 148.143 33.3859 148.903 33.9192C149.663 34.4392 150.043 35.3391 150.044 36.6191L150.044 42.9991L147.904 42.9993ZM147.804 38.8993C147.484 38.886 147.13 38.886 146.744 38.8994C146.357 38.8994 145.977 38.9061 145.604 38.9194C145.084 38.9328 144.67 39.0462 144.364 39.2595C144.07 39.4729 143.924 39.7796 143.924 40.1796C143.924 40.5796 144.064 40.8929 144.344 41.1195C144.624 41.3328 144.997 41.4395 145.464 41.4394C146.144 41.4394 146.704 41.2794 147.144 40.9593C147.584 40.626 147.804 40.1926 147.804 39.6593L147.804 38.8993ZM152.65 42.999L152.649 33.319L154.949 33.3188L154.949 37.0188L159.149 37.0185L159.149 33.3185L161.449 33.3183L161.45 42.9983L159.15 42.9985L159.15 39.0585L154.95 39.0588L154.95 42.9988L152.65 42.999ZM166.474 42.998L164.134 42.9982L164.134 33.3182L166.354 33.318L166.354 39.978L170.514 33.3177L172.934 33.3176L172.934 42.9976L170.694 42.9977L170.694 36.2977L166.474 42.998ZM184.038 38.6368L177.258 38.6373C177.312 39.5173 177.558 40.1906 177.998 40.6572C178.439 41.1105 179.012 41.3371 179.719 41.3371C180.385 41.337 180.892 41.1837 181.239 40.877C181.585 40.5703 181.812 40.2436 181.918 39.8969L183.978 40.2768C183.765 41.0768 183.305 41.7635 182.599 42.3369C181.905 42.9103 180.932 43.197 179.679 43.1971C178.225 43.1972 177.079 42.7506 176.239 41.8573C175.412 40.964 174.998 39.7307 174.998 38.1574C174.998 37.3441 175.118 36.6241 175.358 35.9974C175.611 35.3574 175.945 34.8307 176.358 34.4173C176.785 33.9906 177.278 33.6706 177.838 33.4572C178.411 33.2305 179.025 33.1171 179.678 33.1171C181.065 33.117 182.138 33.5569 182.898 34.4369C183.658 35.3035 184.038 36.4835 184.038 37.9768L184.038 38.6368ZM179.678 34.9771C179.091 34.9771 178.578 35.1572 178.138 35.5172C177.711 35.8639 177.432 36.3772 177.298 37.0573L181.838 37.0569C181.785 36.4169 181.578 35.9103 181.218 35.537C180.871 35.1637 180.358 34.977 179.678 34.9771Z" fill="#0E131A"/>
</svg>
