<svg width="22" height="22" viewBox="0 0 22 22" fill="none" xmlns="http://www.w3.org/2000/svg">
<path d="M8.87918 0.71322L1.25732 6.93446C0.399455 7.62945 -0.150463 9.0979 0.0365087 10.1964L1.49929 19.1192C1.76325 20.7109 3.25902 22 4.84278 22H17.1609C18.7337 22 20.2405 20.6997 20.5044 19.1192L21.9672 10.1964C22.1432 9.0979 21.5933 7.62945 20.7464 6.93446L13.1245 0.724407C11.9477 -0.239608 10.045 -0.239585 8.87918 0.71322Z" fill="#0E131A"/>
<path d="M9.84319 5.88903L5.68581 9.28244C5.21788 9.66152 4.91793 10.4625 5.01991 11.0617L5.81779 15.9286C5.96177 16.7969 6.77765 17.5 7.64151 17.5H14.3605C15.2184 17.5 16.0402 16.7907 16.1842 15.9286L16.9821 11.0617C17.0781 10.4625 16.7781 9.66152 16.3162 9.28244L12.1588 5.89513C11.5169 5.3693 10.4791 5.36932 9.84319 5.88903Z" fill="white"/>
</svg>
