<svg width="63" height="13" viewBox="0 0 63 13" fill="none" xmlns="http://www.w3.org/2000/svg">
<path d="M16.2938 7.78763V0.382324H18.9532V7.69494C18.9532 9.41318 19.9513 10.5943 21.8537 10.5943C23.7562 10.5943 24.7341 9.412 24.7341 7.69494V0.382324H27.4125V7.76981C27.4125 10.8355 25.6015 12.9221 21.8537 12.9221C18.1036 12.9221 16.2938 10.8165 16.2938 7.78763Z" fill="#A1A1A1"/>
<path d="M33.7317 10.9632L35.1529 8.96929C36.0215 9.87476 37.369 10.6305 39.0682 10.6305C40.5096 10.6305 41.2107 9.96625 41.2107 9.26399C41.2107 7.0847 34.1191 8.58073 34.1191 3.94528C34.1191 1.89552 35.892 0.196289 38.7913 0.196289C40.7496 0.196289 42.374 0.78686 43.5931 1.91453L42.134 3.83478C41.1382 2.91149 39.8073 2.48728 38.5513 2.48728C37.4248 2.48728 36.7974 2.98516 36.7974 3.72427C36.7974 5.68135 43.87 4.37069 43.87 8.96929C43.87 11.2223 42.2635 12.9215 38.9399 12.9215C36.5764 12.9215 34.8772 12.1265 33.7317 10.9632Z" fill="#A1A1A1"/>
<path d="M50.0228 6.50045C50.0228 2.7574 52.7594 0.0766602 56.5025 0.0766602C60.2633 0.0766602 62.9999 2.7574 62.9999 6.50045C62.9999 10.2423 60.2633 12.9231 56.5025 12.9231C52.7594 12.9231 50.0228 10.2423 50.0228 6.50045ZM60.2812 6.50045C60.2812 4.17382 58.7923 2.4235 56.5025 2.4235C54.2127 2.4235 52.7416 4.17382 52.7416 6.50045C52.7416 8.80926 54.2127 10.5774 56.5025 10.5774C58.7923 10.5774 60.2812 8.80926 60.2812 6.50045Z" fill="#A1A1A1"/>
<path d="M7.20354 8.00865C8.53322 7.69495 9.90092 6.53163 9.90092 4.35234C9.90092 2.06254 8.33121 0.382324 5.76336 0.382324H0.000244141V2.68995H2.62276H2.81763H5.37598C6.42879 2.68995 7.22256 3.31735 7.22256 4.35234C7.22256 5.38613 6.4276 6.01473 5.37598 6.01473H2.81763H2.62276H0.00143221V12.6999H2.62395V8.32354H4.54538L6.96351 12.7011H9.97459L7.20354 8.00865Z" fill="#A1A1A1"/>
</svg>
