<svg width="15" height="16" viewBox="0 0 15 16" fill="none" xmlns="http://www.w3.org/2000/svg">
<circle cx="7.5" cy="8.09265" r="7" stroke="#848B8C"/>
<path d="M6.52107 9.70938V8.96796C6.52107 8.72768 6.57063 8.53203 6.66976 8.381C6.77596 8.22311 6.96714 8.06178 7.24328 7.89702L7.82742 7.5469C8.06107 7.4096 8.24162 7.26201 8.36907 7.10411C8.49652 6.93935 8.56025 6.71281 8.56025 6.42448C8.56025 6.10869 8.44696 5.85125 8.22038 5.65217C7.99381 5.44622 7.66102 5.34324 7.22203 5.34324C6.74764 5.34324 6.37592 5.45995 6.10686 5.69336C5.84488 5.9199 5.67495 6.1945 5.59706 6.51716L4.73679 6.3524C4.83591 5.83752 5.08373 5.40846 5.48024 5.06521C5.88382 4.7151 6.46442 4.54004 7.22203 4.54004C7.96549 4.54004 8.52484 4.71853 8.90011 5.07551C9.28245 5.42562 9.47363 5.87528 9.47363 6.42448C9.47363 6.8913 9.36034 7.25857 9.13376 7.52631C8.91427 7.79404 8.68769 7.99656 8.45404 8.13386L7.95486 8.43249C7.72121 8.56979 7.56898 8.69336 7.49817 8.8032C7.43445 8.91304 7.40259 9.07093 7.40259 9.27688V9.70938H6.52107ZM6.40424 11.6453V10.5126H7.54066V11.6453H6.40424Z" fill="#848B8C"/>
</svg>
