<svg width="27" height="27" viewBox="0 0 27 27" fill="none" xmlns="http://www.w3.org/2000/svg">
<path opacity="0.4" d="M20.25 21.2175H19.395C18.495 21.2175 17.64 21.5662 17.01 22.1962L15.0863 24.0975C14.2088 24.9637 12.78 24.9637 11.9025 24.0975L9.97874 22.1962C9.34874 21.5662 8.4825 21.2175 7.59375 21.2175H6.75C4.8825 21.2175 3.375 19.7212 3.375 17.8762V5.60245C3.375 3.75745 4.8825 2.26123 6.75 2.26123H20.25C22.1175 2.26123 23.625 3.75745 23.625 5.60245V17.8762C23.625 19.71 22.1175 21.2175 20.25 21.2175Z" fill="#848B8C"/>
<path d="M18.6525 10.7662C18.4388 10.4625 18.0788 10.2937 17.6513 10.2937H15.4576C15.3113 10.2937 15.1763 10.2374 15.0863 10.1249C14.9963 10.0124 14.9513 9.8662 14.9738 9.7087L15.2438 7.9537C15.3563 7.4362 15.0075 6.83994 14.49 6.67119C14.0063 6.49119 13.4325 6.73867 13.2076 7.07617L11.025 10.3162V9.91119C11.025 9.12369 10.6875 8.79745 9.85504 8.79745H9.3038C8.4713 8.79745 8.13379 9.12369 8.13379 9.91119V15.2887C8.13379 16.0762 8.4713 16.4025 9.3038 16.4025H9.85504C10.6425 16.4025 10.98 16.0987 11.0138 15.3787L12.6675 16.6499C12.8925 16.8749 13.3988 16.9987 13.7588 16.9987H15.84C16.56 16.9987 17.28 16.4587 17.4375 15.7949L18.7538 11.7899C18.9 11.4299 18.8663 11.0587 18.6525 10.7662Z" fill="#848B8C"/>
</svg>
