<svg width="22" height="22" viewBox="0 0 22 22" fill="none" xmlns="http://www.w3.org/2000/svg">
<path d="M14.8693 0.110854C15.0296 0.0804751 15.2286 0.0445731 15.3116 0.0307646C15.3945 0.0141944 15.704 0.00314765 15.9942 0.000385955C16.4503 -0.00237574 16.5884 0.00867104 16.9339 0.0666666C17.1606 0.10533 17.4121 0.155041 17.495 0.177134C17.5779 0.199228 17.7962 0.26827 17.9786 0.329028C18.1611 0.392547 18.4595 0.516823 18.642 0.605197C18.8244 0.693571 19.1035 0.850988 19.2638 0.955932C19.4241 1.06088 19.6535 1.22658 19.7751 1.32324C19.8967 1.4199 20.1206 1.62426 20.2726 1.77616C20.4246 1.93081 20.6374 2.17384 20.748 2.31745C20.8558 2.46106 21.0161 2.69028 21.1018 2.82836C21.1874 2.96645 21.3229 3.215 21.4058 3.3807C21.4859 3.54916 21.602 3.82809 21.6628 4.00208C21.7236 4.17607 21.8038 4.46328 21.8425 4.63727C21.8839 4.81126 21.9337 5.10952 21.9585 5.30008C21.9807 5.49063 22 5.80547 22 6.00431C22 6.20315 21.9807 6.51798 21.9585 6.70854C21.9337 6.8991 21.8839 7.17803 21.848 7.32992C21.8121 7.48181 21.743 7.72484 21.696 7.86845C21.6462 8.01206 21.5467 8.26061 21.4749 8.42079C21.403 8.58097 21.2786 8.824 21.2013 8.95932C21.1211 9.09464 21.0023 9.28244 20.9387 9.37358C20.8724 9.46471 20.7535 9.61937 20.6761 9.71879C20.596 9.81821 19.6701 10.7627 18.6171 11.8177C17.296 13.1405 16.6575 13.7591 16.5663 13.8116C16.4917 13.853 16.3452 13.9055 16.2374 13.9304C16.1103 13.9607 15.9915 13.9718 15.892 13.9607C15.809 13.9497 15.6847 13.9276 15.6156 13.9055C15.5465 13.8862 15.4221 13.8254 15.3392 13.773C15.2563 13.7205 15.1402 13.6238 15.0822 13.5548C15.0241 13.4885 14.9523 13.378 14.9191 13.309C14.8859 13.2399 14.8417 13.1212 14.8224 13.0466C14.803 12.9693 14.7864 12.845 14.7864 12.7705C14.7864 12.6931 14.8058 12.5578 14.8279 12.4667C14.8528 12.3755 14.9053 12.2457 14.944 12.1767C14.9854 12.1021 15.7621 11.3012 16.8704 10.1883C18.208 8.84609 18.7663 8.26614 18.8686 8.117C18.946 8.00378 19.0648 7.79665 19.1339 7.66132C19.203 7.526 19.2887 7.31887 19.3274 7.20565C19.3661 7.09242 19.4214 6.89357 19.449 6.76377C19.4849 6.58703 19.4987 6.41304 19.4987 6.07335C19.496 5.70328 19.4849 5.56244 19.4324 5.32769C19.3965 5.16752 19.3384 4.94934 19.2997 4.8444C19.2611 4.73945 19.1892 4.57099 19.1394 4.47157C19.0897 4.37215 18.9709 4.17331 18.8741 4.0297C18.7774 3.88609 18.6033 3.67344 18.49 3.55745C18.3766 3.44422 18.1776 3.27023 18.0477 3.17633C17.9178 3.07967 17.7161 2.95264 17.5972 2.89464C17.4812 2.83388 17.2932 2.75103 17.1854 2.70685C17.0749 2.66266 16.8593 2.59914 16.7073 2.566C16.5304 2.52734 16.2899 2.49972 16.044 2.49143C15.7482 2.47763 15.5879 2.48591 15.3668 2.52457C15.2065 2.54943 14.9771 2.6019 14.8555 2.64057C14.7339 2.67923 14.5239 2.76208 14.3857 2.8256C14.2475 2.88912 14.0374 3.00787 13.9158 3.09072C13.7472 3.20395 13.2497 3.68172 11.8153 5.10952C10.6766 6.23905 9.88618 7.00404 9.81156 7.04823C9.74246 7.08689 9.61256 7.13936 9.52136 7.16146C9.43015 7.18631 9.29196 7.20565 9.21734 7.20565C9.14271 7.20565 9.00452 7.18631 8.91332 7.16422C8.82211 7.13936 8.68116 7.08137 8.59824 7.03166C8.51809 6.98195 8.40201 6.88805 8.33844 6.81901C8.27764 6.74997 8.19196 6.62017 8.1505 6.52903C8.10628 6.43789 8.05653 6.28324 8.03995 6.18382C8.01508 6.05126 8.01507 5.95736 8.03719 5.8248C8.05653 5.72538 8.10628 5.57072 8.15327 5.47959C8.22513 5.33874 8.51533 5.03495 10.0962 3.44698C11.1161 2.41963 12.0724 1.48342 12.2161 1.36466C12.3598 1.24591 12.5643 1.09126 12.6721 1.01945C12.7799 0.947647 12.9789 0.826132 13.1143 0.751567C13.2497 0.674239 13.493 0.555486 13.6533 0.486444C13.8136 0.417402 14.0872 0.317981 14.2613 0.265509C14.4354 0.213036 14.709 0.143994 14.8693 0.110854Z" fill="#60C8D8"/>
<path d="M5.22362 8.37108C5.29271 8.32966 5.40879 8.27442 5.48618 8.24957C5.56357 8.22195 5.71005 8.19986 5.81784 8.19986C5.93392 8.19986 6.08317 8.21919 6.19095 8.25233C6.29598 8.28547 6.4397 8.35727 6.53643 8.42908C6.62764 8.49536 6.73819 8.59754 6.78518 8.6583C6.8294 8.71629 6.89296 8.82952 6.92889 8.90409C6.96206 8.98141 7.00075 9.11674 7.01457 9.20787C7.02839 9.30177 7.02839 9.4509 7.01457 9.55309C7.00075 9.65251 6.95653 9.80716 6.91784 9.8983C6.85151 10.0474 6.67186 10.2352 5.00251 11.9143C3.47965 13.4416 3.13417 13.8061 3.00704 13.9994C2.92136 14.1292 2.80251 14.3336 2.74171 14.4551C2.6809 14.5766 2.59246 14.8003 2.54548 14.9522C2.49849 15.1041 2.44045 15.3665 2.41558 15.5322C2.38241 15.7476 2.37412 15.9271 2.38518 16.1535C2.39623 16.3275 2.42111 16.5706 2.44598 16.6921C2.46809 16.8136 2.52337 17.0179 2.56759 17.1477C2.61181 17.2775 2.68367 17.4626 2.73065 17.562C2.77487 17.6614 2.89095 17.8603 2.98492 18.0039C3.09271 18.1696 3.26683 18.3739 3.45201 18.5562C3.61231 18.7164 3.83894 18.9097 3.95226 18.9843C4.06558 19.0588 4.26457 19.1748 4.39447 19.2356C4.52437 19.2991 4.74824 19.3875 4.89196 19.4344C5.03568 19.4814 5.30377 19.5394 5.48618 19.5642C5.72111 19.5974 5.90628 19.6084 6.12186 19.5946C6.28769 19.5863 6.52538 19.5615 6.64699 19.5366C6.76859 19.5145 6.97312 19.4593 7.10301 19.4179C7.23291 19.3737 7.43744 19.2881 7.55905 19.2301C7.68065 19.1693 7.87412 19.0588 7.98744 18.9843C8.14774 18.8793 8.61206 18.4375 10.0465 17.0097C11.7683 15.2946 11.9121 15.1593 12.0917 15.0737C12.2769 14.9826 12.2962 14.9798 12.603 14.9798C12.9043 14.9798 12.9291 14.9853 13.106 15.071C13.2193 15.1234 13.3548 15.2201 13.446 15.3112C13.5372 15.4024 13.6339 15.5377 13.6864 15.6509C13.7721 15.8277 13.7776 15.8525 13.7776 16.1535C13.7776 16.4601 13.7749 16.4794 13.6837 16.6644C13.598 16.844 13.4709 16.9765 11.9148 18.5369C10.9945 19.462 10.1183 20.3237 9.9691 20.4563C9.81985 20.5888 9.59598 20.7683 9.47161 20.8595C9.34724 20.9478 9.12613 21.0887 8.98241 21.1743C8.83869 21.2599 8.5706 21.3952 8.38819 21.4726C8.20578 21.5526 7.91281 21.6604 7.73869 21.7156C7.56457 21.7681 7.29648 21.8371 7.14447 21.8675C6.99246 21.8979 6.64975 21.942 6.38442 21.9697C6.1108 21.9945 5.83442 22.0056 5.74874 21.9973C5.66583 21.9862 5.44749 21.9614 5.26508 21.9393C5.08266 21.9172 4.81457 21.873 4.67085 21.8426C4.52714 21.8122 4.25905 21.7349 4.07663 21.6742C3.89422 21.6134 3.6206 21.5029 3.46859 21.4311C3.31658 21.3593 3.06784 21.2268 2.91583 21.1384C2.76382 21.05 2.5206 20.8871 2.37688 20.7766C2.23317 20.6689 2.00377 20.4756 1.86834 20.3485C1.73291 20.2215 1.52286 19.9978 1.40402 19.8542C1.28241 19.7106 1.10276 19.4676 1.0005 19.3157C0.901005 19.1638 0.76005 18.929 0.688191 18.791C0.616332 18.6529 0.511307 18.4319 0.45603 18.2938C0.39799 18.1558 0.312312 17.9072 0.259799 17.7415C0.21005 17.5758 0.143719 17.3079 0.113317 17.1477C0.0829146 16.9876 0.0442211 16.728 0.0276382 16.5678C0.0110553 16.4076 0 16.1397 0 15.974C0 15.8083 0.0193467 15.5128 0.0414573 15.3195C0.0635678 15.1234 0.107789 14.8555 0.138191 14.7175C0.168593 14.5794 0.229397 14.3529 0.276382 14.2148C0.320603 14.074 0.409045 13.8337 0.469849 13.6818C0.533417 13.5299 0.635678 13.3118 0.699246 13.1985C0.76005 13.0853 0.867839 12.9058 0.934171 12.7981C1.00327 12.6904 1.13317 12.5053 1.22437 12.3838C1.32111 12.254 2.15025 11.4007 3.24472 10.3043C4.30327 9.24378 5.15176 8.41251 5.22362 8.37108Z" fill="#60C8D8"/>
<path d="M13.6533 6.70026C13.7224 6.65331 13.8467 6.59255 13.9296 6.56769C14.0126 6.54008 14.1618 6.51798 14.2613 6.51798C14.3608 6.51798 14.4962 6.52903 14.5653 6.5456C14.6344 6.56217 14.756 6.60912 14.8389 6.64778C14.9191 6.68921 15.0435 6.77758 15.1153 6.84663C15.1844 6.91567 15.2756 7.0289 15.3143 7.09518C15.3558 7.16422 15.4111 7.29402 15.4359 7.38516C15.4719 7.50667 15.4802 7.61438 15.4719 7.7856C15.4636 7.97892 15.4442 8.05625 15.3696 8.21366C15.2812 8.3987 15.1319 8.55335 11.7766 11.9033C8.70327 14.9771 8.25829 15.4106 8.11181 15.4824C8.0206 15.5266 7.8603 15.5819 7.75251 15.6012C7.59774 15.6288 7.52312 15.6316 7.3794 15.604C7.2799 15.5846 7.13065 15.5377 7.04774 15.499C6.96482 15.4604 6.82387 15.3609 6.73543 15.2726C6.63593 15.1787 6.54196 15.0544 6.49498 14.9522C6.45075 14.8611 6.40377 14.7064 6.38719 14.607C6.36784 14.491 6.36784 14.364 6.38442 14.248C6.39824 14.1485 6.44799 13.9884 6.49498 13.8889C6.57513 13.7232 6.83216 13.4581 10.0548 10.2463C11.9646 8.3407 13.5842 6.74444 13.6533 6.70026Z" fill="#60C8D8"/>
</svg>
