<svg width="42" height="42" viewBox="0 0 42 42" fill="none" xmlns="http://www.w3.org/2000/svg">
<path opacity="0.4" d="M14.9803 5.84521V30.9227C14.3853 30.9402 13.7903 31.0802 13.3528 31.3427L9.24031 33.6877C6.37031 35.3327 4.00781 33.9677 4.00781 30.6427V13.6152C4.00781 12.5127 4.79531 11.1477 5.77531 10.5877L13.3528 6.24771C13.7903 6.00271 14.3853 5.86271 14.9803 5.84521Z" fill="white"/>
<path d="M27.528 11.0776V36.1551C26.9155 36.1726 26.3205 36.0676 25.848 35.8401L16.6605 31.2376C16.188 31.0101 15.593 30.9051 14.9805 30.9226V5.84514C15.593 5.82764 16.188 5.93264 16.6605 6.16014L25.848 10.7626C26.3205 10.9901 26.9155 11.0951 27.528 11.0776Z" fill="white"/>
<path opacity="0.4" d="M38.4998 11.3576V28.3851C38.4998 29.4876 37.7123 30.8526 36.7323 31.4126L29.1548 35.7526C28.7173 35.9976 28.1223 36.1376 27.5273 36.1551V11.0776C28.1223 11.0601 28.7173 10.9201 29.1548 10.6576L33.2673 8.31261C36.1373 6.66761 38.4998 8.03261 38.4998 11.3576Z" fill="white"/>
</svg>
