<svg width="36" height="36" viewBox="0 0 36 36" fill="none" xmlns="http://www.w3.org/2000/svg">
<path opacity="0.4" d="M12.8405 5.01001V26.505C12.3305 26.52 11.8205 26.64 11.4455 26.865L7.92055 28.875C5.46055 30.285 3.43555 29.115 3.43555 26.265V11.67C3.43555 10.725 4.11055 9.55501 4.95055 9.07501L11.4455 5.35501C11.8205 5.14501 12.3305 5.02501 12.8405 5.01001Z" fill="#00B4A0"/>
<path d="M23.5948 9.49503V30.99C23.0698 31.005 22.5598 30.915 22.1548 30.72L14.2798 26.775C13.8748 26.58 13.3648 26.49 12.8398 26.505V5.01003C13.3648 4.99503 13.8748 5.08503 14.2798 5.28003L22.1548 9.22503C22.5598 9.42003 23.0698 9.51003 23.5948 9.49503Z" fill="#00B4A0"/>
<path opacity="0.4" d="M33.0007 9.73497V24.33C33.0007 25.275 32.3257 26.445 31.4857 26.925L24.9907 30.645C24.6157 30.855 24.1057 30.975 23.5957 30.99V9.49497C24.1057 9.47997 24.6157 9.35998 24.9907 9.13497L28.5157 7.12497C30.9757 5.71497 33.0007 6.88497 33.0007 9.73497Z" fill="#00B4A0"/>
</svg>
