<svg width="43" height="43" viewBox="0 0 43 43" fill="none" xmlns="http://www.w3.org/2000/svg">
<path d="M39.418 10.7498V15.0857C39.418 17.9165 37.6263 19.7082 34.7955 19.7082H28.668V7.1844C28.668 5.19565 30.2984 3.56524 32.2871 3.58315C34.2401 3.60107 36.0317 4.3894 37.3217 5.6794C38.6117 6.98732 39.418 8.77899 39.418 10.7498Z" fill="#0E131A"/>
<path opacity="0.4" d="M3.58203 12.5418V37.6252C3.58203 39.1122 5.2662 39.9543 6.4487 39.0585L9.51245 36.7652C10.2291 36.2277 11.2324 36.2993 11.8774 36.9443L14.8516 39.9364C15.5504 40.6352 16.697 40.6352 17.3958 39.9364L20.4058 36.9264C21.0329 36.2993 22.0362 36.2277 22.7349 36.7652L25.7987 39.0585C26.9812 39.9364 28.6654 39.0943 28.6654 37.6252V7.16683C28.6654 5.196 30.2779 3.5835 32.2487 3.5835H12.5404H10.7487C5.3737 3.5835 3.58203 6.79058 3.58203 10.7502V12.5418Z" fill="#0E131A"/>
<path d="M20.4792 21.6436C19.4937 21.6436 18.6875 22.4498 18.6875 23.4352C18.6875 24.4206 19.4937 25.2269 20.4792 25.2269C21.4646 25.2269 22.2708 24.4206 22.2708 23.4352C22.2708 22.4498 21.4646 21.6436 20.4792 21.6436Z" fill="#0E131A"/>
<path d="M11.7721 17.9705C12.7755 17.9705 13.5638 17.1643 13.5638 16.1789C13.5638 15.1935 12.7576 14.3872 11.7721 14.3872C10.7867 14.3872 9.98047 15.1935 9.98047 16.1789C9.98047 17.1643 10.7867 17.9705 11.7721 17.9705Z" fill="#0E131A"/>
<path d="M21.9659 13.8677C21.4463 13.3481 20.5863 13.3481 20.0667 13.8677L10.2842 23.6502C9.76464 24.1698 9.76464 25.0298 10.2842 25.5494C10.553 25.8181 10.8934 25.9435 11.2338 25.9435C11.5742 25.9435 11.9146 25.8181 12.1834 25.5494L21.9659 15.7669C22.4855 15.2473 22.4855 14.3873 21.9659 13.8677Z" fill="#0E131A"/>
</svg>
