<svg width="19" height="21" viewBox="0 0 19 21" fill="none" xmlns="http://www.w3.org/2000/svg">
<path d="M9.51651 2.4755C9.28521 2.4755 9.03739 2.50777 8.80609 2.52391L9.2687 2.00754C9.71478 1.50732 9.66521 0.732774 9.15303 0.297094C8.64086 -0.138587 7.84782 -0.090178 7.40173 0.410048L4.6426 3.49209C4.62608 3.50822 4.62608 3.52436 4.60955 3.5405C4.59303 3.55663 4.5765 3.55663 4.5765 3.57277C4.54346 3.62118 4.52696 3.68572 4.49392 3.75027C4.46087 3.83095 4.41128 3.89549 4.39476 3.97618C4.37824 4.05686 4.37826 4.1214 4.36174 4.20208C4.36174 4.28277 4.3452 4.34731 4.3452 4.42799C4.3452 4.50867 4.37826 4.57322 4.4113 4.6539C4.42782 4.73458 4.46087 4.79913 4.49392 4.86367C4.52696 4.92822 4.59304 4.99276 4.6426 5.05731C4.69217 5.10572 4.70868 5.17026 4.75824 5.20254C4.77477 5.21867 4.79129 5.21867 4.80781 5.23481C4.82433 5.25095 4.82434 5.26708 4.84086 5.26708L8.04608 7.55844C8.26086 7.7198 8.52521 7.78435 8.77304 7.78435C9.15304 7.78435 9.53304 7.60685 9.78087 7.28412C10.1774 6.75162 10.0617 5.99322 9.51651 5.58981L8.5913 4.92822C8.88869 4.89595 9.2026 4.86367 9.51651 4.86367C13.3826 4.86367 16.5383 7.94571 16.5383 11.7216C16.5383 15.4975 13.3826 18.5796 9.51651 18.5796C5.65043 18.5796 2.49477 15.4975 2.49477 11.7216C2.49477 10.35 2.90783 9.04298 3.66783 7.91344C4.04783 7.36481 3.89912 6.6064 3.32086 6.23526C2.75912 5.86413 1.98261 6.00935 1.60261 6.57413C0.561741 8.10708 0 9.88207 0 11.7216C0 16.8368 4.26261 21 9.5 21C14.7374 21 19 16.8368 19 11.7216C19 6.6064 14.7539 2.4755 9.51651 2.4755Z" fill="#00B4A0"/>
</svg>
