<svg width="34" height="38" viewBox="0 0 34 38" fill="none" xmlns="http://www.w3.org/2000/svg">
<path opacity="0.4" d="M14.0381 0.44175L4.25 3.99477C1.99423 4.81177 0.150391 7.39575 0.150391 9.73275V23.8498C0.150391 26.0918 1.68041 29.0368 3.54387 30.3858L11.9785 36.4847C14.7442 38.4987 19.295 38.4987 22.0607 36.4847L30.4954 30.3858C32.3589 29.0368 33.8888 26.0918 33.8888 23.8498V9.73275C33.8888 7.39575 32.045 4.81177 29.7892 3.99477L20.0012 0.44175C18.3338 -0.14725 15.6661 -0.14725 14.0381 0.44175Z" fill="#292D32"/>
<path d="M16.803 17.6745C16.8422 17.6745 16.8814 17.6745 16.9207 17.6745H16.9599H16.9991C19.2549 17.5985 21.0203 15.8315 21.0399 13.6275C21.0399 11.3855 19.1569 9.56152 16.8423 9.56152C14.5276 9.56152 12.6445 11.3855 12.6445 13.6275C12.6838 15.8125 14.4491 17.5985 16.803 17.6745Z" fill="#292D32"/>
<path d="M21.2944 21.6835C18.921 20.1635 15.0763 20.1635 12.6832 21.6835C11.5848 22.4055 10.9375 23.4314 10.9375 24.4954C10.9375 25.5784 11.5652 26.5665 12.6832 27.2885C13.8798 28.0485 15.4294 28.4475 16.979 28.4475C18.5286 28.4475 20.0979 28.0675 21.2748 27.2885C22.3732 26.5665 23.0206 25.5405 23.0206 24.4765C23.0402 23.3935 22.4125 22.4055 21.2944 21.6835Z" fill="#292D32"/>
</svg>
