<svg width="35" height="35" viewBox="0 0 35 35" fill="none" xmlns="http://www.w3.org/2000/svg">
<path opacity="0.4" d="M32.2182 8.68002V13.65L9.4507 30.345L4.8482 26.8975C3.7107 26.04 2.7832 24.2025 2.7832 22.785V8.68002C2.7832 6.72002 4.2882 4.55002 6.1257 3.86752L15.6982 0.28002C16.6957 -0.0874805 18.3057 -0.0874805 19.3032 0.28002L28.8757 3.86752C30.7132 4.55002 32.2182 6.72002 32.2182 8.68002Z" fill="#292D32"/>
<path d="M32.218 16.0474V22.7849C32.218 24.2024 31.2905 26.0399 30.153 26.8974L20.5805 34.0549C19.7405 34.6849 18.6205 34.9999 17.5005 34.9999C16.3805 34.9999 15.2605 34.6849 14.4205 34.0549L11.0605 31.5524L32.218 16.0474Z" fill="#292D32"/>
</svg>
