<svg width="37" height="37" viewBox="0 0 37 37" fill="none" xmlns="http://www.w3.org/2000/svg">
<path d="M30.0632 12.3333C32.1917 12.3333 33.9173 10.6078 33.9173 8.47917C33.9173 6.35057 32.1917 4.625 30.0632 4.625C27.9346 4.625 26.209 6.35057 26.209 8.47917C26.209 10.6078 27.9346 12.3333 30.0632 12.3333Z" fill="#00B4A0"/>
<path d="M30.0632 12.3333C32.1917 12.3333 33.9173 10.6078 33.9173 8.47917C33.9173 6.35057 32.1917 4.625 30.0632 4.625C27.9346 4.625 26.209 6.35057 26.209 8.47917C26.209 10.6078 27.9346 12.3333 30.0632 12.3333Z" fill="#00B4A0"/>
<path opacity="0.4" d="M31.944 14.3529C32.9152 14.0446 33.9173 14.8 33.9173 15.8329V23.9113C33.9173 29.3071 30.834 31.6196 26.209 31.6196H10.7923C6.16732 31.6196 3.08398 29.3071 3.08398 23.9113V13.1196C3.08398 7.72375 6.16732 5.41125 10.7923 5.41125H22.5244C23.5265 5.41125 24.2048 6.33627 24.0198 7.30752C23.8348 8.21711 23.8657 9.18835 24.1432 10.1904C24.7136 12.2563 26.394 13.9058 28.4598 14.4454C29.6777 14.7538 30.8648 14.6921 31.944 14.3529Z" fill="#00B4A0"/>
<path d="M18.4996 19.8413C17.2046 19.8413 15.8942 19.4404 14.8921 18.6234L10.0667 14.7692C9.57337 14.3684 9.48087 13.6438 9.88171 13.1504C10.2825 12.6571 11.0071 12.5646 11.5004 12.9654L16.3259 16.8196C17.4975 17.76 19.4863 17.76 20.6579 16.8196L22.4771 15.3704C22.9704 14.9696 23.7105 15.0467 24.0959 15.5554C24.4967 16.0488 24.4196 16.7888 23.9109 17.1742L22.0917 18.6234C21.105 19.4404 19.7946 19.8413 18.4996 19.8413Z" fill="#00B4A0"/>
</svg>
