<svg width="37" height="37" viewBox="0 0 37 37" fill="none" xmlns="http://www.w3.org/2000/svg">
<path d="M30.0632 12.3333C32.1917 12.3333 33.9173 10.6078 33.9173 8.47917C33.9173 6.35057 32.1917 4.625 30.0632 4.625C27.9346 4.625 26.209 6.35057 26.209 8.47917C26.209 10.6078 27.9346 12.3333 30.0632 12.3333Z" fill="white"/>
<path d="M30.0632 12.3333C32.1917 12.3333 33.9173 10.6078 33.9173 8.47917C33.9173 6.35057 32.1917 4.625 30.0632 4.625C27.9346 4.625 26.209 6.35057 26.209 8.47917C26.209 10.6078 27.9346 12.3333 30.0632 12.3333Z" fill="white"/>
<path opacity="0.4" d="M31.944 14.3528C32.9152 14.0445 33.9173 14.7999 33.9173 15.8328V23.9111C33.9173 29.307 30.834 31.6195 26.209 31.6195H10.7923C6.16732 31.6195 3.08398 29.307 3.08398 23.9111V13.1195C3.08398 7.72363 6.16732 5.41113 10.7923 5.41113H22.5244C23.5265 5.41113 24.2048 6.33615 24.0198 7.3074C23.8348 8.21698 23.8657 9.18823 24.1432 10.1903C24.7136 12.2561 26.394 13.9057 28.4598 14.4453C29.6777 14.7536 30.8648 14.692 31.944 14.3528Z" fill="white"/>
<path d="M18.4996 19.8415C17.2046 19.8415 15.8942 19.4407 14.8921 18.6236L10.0667 14.7694C9.57337 14.3686 9.48087 13.644 9.88171 13.1507C10.2825 12.6573 11.0071 12.5649 11.5004 12.9657L16.3259 16.8199C17.4975 17.7603 19.4863 17.7603 20.6579 16.8199L22.4771 15.3707C22.9704 14.9699 23.7105 15.0469 24.0959 15.5557C24.4967 16.049 24.4196 16.789 23.9109 17.1744L22.0917 18.6236C21.105 19.4407 19.7946 19.8415 18.4996 19.8415Z" fill="white"/>
</svg>
