<svg width="39" height="39" viewBox="0 0 39 39" fill="none" xmlns="http://www.w3.org/2000/svg">
<path opacity="0.4" d="M9.32672 26C9.50547 25.2038 9.18047 24.0662 8.61172 23.4975L4.66297 19.5487C3.42797 18.3137 2.94047 16.9975 3.29797 15.86C3.67172 14.7225 4.82547 13.9425 6.54797 13.65L11.618 12.805C12.3492 12.675 13.243 12.025 13.5842 11.3587L16.3792 5.7525C17.1917 4.14375 18.2967 3.25 19.4992 3.25C20.7017 3.25 21.8067 4.14375 22.6192 5.7525L25.4142 11.3587C25.6255 11.7812 26.0642 12.1875 26.5355 12.4637L9.03422 29.965C8.80672 30.1925 8.41672 29.9813 8.48172 29.6562L9.32672 26Z" fill="#0E131A"/>
<path d="M30.3883 23.4975C29.8033 24.0825 29.4783 25.2038 29.6733 26L30.7945 30.8913C31.2658 32.9225 30.9733 34.45 29.9658 35.1813C29.5595 35.4738 29.072 35.62 28.5033 35.62C27.6745 35.62 26.6995 35.3113 25.627 34.6775L20.8658 31.85C20.1183 31.4113 18.8833 31.4113 18.1358 31.85L13.3745 34.6775C11.5708 35.7338 10.027 35.9125 9.03578 35.1813C8.66203 34.905 8.38578 34.5313 8.20703 34.0438L27.967 14.2838C28.7145 13.5363 29.7708 13.195 30.7945 13.3738L32.4358 13.65C34.1583 13.9425 35.312 14.7225 35.6858 15.86C36.0433 16.9975 35.5558 18.3138 34.3208 19.5488L30.3883 23.4975Z" fill="#0E131A"/>
</svg>
