<?xml version="1.0" encoding="utf-8" ?><svg xmlns="http://www.w3.org/2000/svg" xmlns:xlink="http://www.w3.org/1999/xlink" width="145" height="47" viewBox="0 0 145 47"><path fill="#00B6A1" transform="scale(0.25 0.25)" d="M87.1191 3.23069C104.14 2.18428 120.119 5.25073 135.29 13.1983C156.17 24.2202 171.864 43.0229 178.974 65.5328C186.199 88.4237 183.996 113.25 172.855 134.512C162.765 153.82 145.961 168.772 125.609 176.553C118.911 179.052 114.674 179.462 108.601 181.347C108.174 149.928 108.655 118.06 108.482 86.568C115.523 86.9875 128.473 86.1239 134.552 86.9751C134.237 81.5697 134.203 69.7247 134.552 64.3721C131.63 64.6484 126.017 64.4916 122.889 64.492L101.245 64.4864C85.3715 64.4843 68.3578 64.8136 52.6289 64.4591C53.0292 68.5405 53.1198 82.8264 52.6452 86.8389C60.87 86.2601 70.4447 86.9903 78.9985 86.5488C78.7141 89.975 78.8149 94.7946 78.8112 98.2965L78.8066 117.682L78.7865 181.158C63.2856 178.871 47.3651 170.967 35.4799 160.901C17.4654 145.483 6.31453 123.542 4.47991 99.9046C2.53997 76.3876 9.93105 53.0514 25.0567 34.9367C41.2598 15.86 62.2301 5.26332 87.1191 3.23069ZM66.9177 165.764C66.3832 162.505 66.5728 155.678 66.5757 152.075L66.6021 128.469L66.587 109.596C66.5845 106.802 66.4471 101.289 66.8452 98.6702C59.4694 98.7125 47.5813 98.339 40.6284 98.9168C40.2308 84.1746 40.6228 67.3949 40.5839 52.4633L99.8291 52.4598L130.329 52.464C134.508 52.4632 142.768 52.6897 146.732 52.2553C146.29 61.7113 146.795 72.5109 146.598 82.0968C146.546 84.657 146.402 96.8411 146.66 98.9462C138.906 98.4996 128.2 98.6089 120.357 98.839C120.698 102.239 120.591 107.263 120.593 110.768L120.592 129.752L120.582 152.386C120.58 156.389 120.711 161.653 120.453 165.549C141.637 156.262 157.167 142.718 165.752 120.705C173.187 101.637 172.738 80.3972 164.504 61.6603C156.183 42.6949 140.68 27.8012 121.394 20.2437C110.293 15.9509 98.3416 14.3103 86.4938 15.4527C67.2537 16.507 48.3026 27.4796 35.5826 41.6554C22.1104 56.8817 15.2231 76.8253 16.4291 97.118C17.9916 125.064 34.6231 149.942 59.5637 162.247C61.9634 163.431 64.5911 164.506 66.9177 165.764Z"/><path fill="#00B6A1" transform="scale(0.25 0.25)" d="M487.845 41.7415C493.463 41.801 499.082 41.8151 504.701 41.7836C507.069 41.7823 509.607 41.7763 511.913 41.8215C529.032 42.1569 537.7 54.8616 534.967 70.9969C533.828 77.721 530.672 81.7619 525.302 85.5552C530.111 94.0035 534.224 107.837 538.885 115.932C534.046 115.539 527.247 115.957 522.231 115.633C521.754 115.603 521.595 115.173 521.404 114.815C517.439 106.411 513.772 97.3723 509.978 88.814C508.049 88.9927 505.582 88.9389 503.608 88.9493C503.925 91.5503 503.797 95.2664 503.833 97.9404C503.914 103.882 503.679 109.971 503.904 115.902C499.967 115.651 491.402 115.448 487.646 115.806C487.471 112.964 487.612 108.659 487.613 105.685L487.622 86.2514C487.626 71.7891 487.66 57.2775 487.551 42.8133C487.548 42.4005 487.662 42.1094 487.845 41.7415ZM503.681 74.6597C508.927 74.4531 512.006 75.3856 516.21 72.0291C518.202 69.8568 519.325 68.0718 519.199 64.9593C519.103 62.5222 518.036 60.2247 516.235 58.5796C512.658 55.3491 508.139 56.2293 503.605 56.0449C503.872 59.7064 504.051 70.9918 503.681 74.6597Z"/><path fill="#00B6A1" transform="scale(0.25 0.25)" d="M294.378 41.5488C297.916 42.0604 308.033 41.7944 311.98 41.7277L325.746 91.9142C327.368 97.8164 330.461 110.569 332.482 115.82C328.053 115.737 320.208 115.413 316.061 115.834C315.929 114.6 312.934 102.702 312.448 101.924L311.874 101.807C308.386 102.08 296.591 102.126 293.372 101.706C292.14 106.396 290.938 111.095 289.767 115.801C285.394 115.703 277.898 115.408 273.735 115.872C274.26 112.591 275.641 108.092 276.552 104.773L281.479 86.8442L289.047 59.1894C289.779 56.5119 293.125 43.1322 294.378 41.5488ZM297.1 88.2599C299.407 87.9722 301.348 88.0186 303.665 88.0301L309.225 88.0574C307.879 85.1996 303.437 66.6032 302.732 66.0569C301.004 73.5 298.864 80.8563 297.1 88.2599Z"/><path fill="#00B6A1" transform="scale(0.25 0.25)" d="M358.852 40.583C367.359 39.8338 372.961 41.0426 380.559 44.8529C379.951 49.0619 378.571 54.7325 377.641 59.0026C370.436 54.4985 356.808 52.751 353.105 62.9042C351.217 69.8808 353.016 79.0185 352.303 86.0503C351.162 97.2841 356.076 106.774 368.441 101.01C368.34 96.7007 368.345 92.3899 368.455 88.0811C366.405 88.3512 362.95 88.3427 360.777 88.3936C360.821 83.5289 360.812 78.6639 360.751 73.7994C367.92 73.8972 375.09 73.9048 382.259 73.8223C382.503 73.6868 382.831 73.7591 383.128 73.7829C383.687 74.5028 383.457 84.3314 383.457 86.1342L383.435 110.889C373.515 118.637 356.736 120.146 346.253 112.757C340.926 108.993 337.342 103.241 336.313 96.8007C335.478 91.7525 335.412 65.8621 336.395 60.9554C337.113 57.3689 338.715 53.8457 340.853 50.8846C345.241 44.8062 351.631 41.7685 358.852 40.583Z"/><path fill="#00B6A1" transform="scale(0.25 0.25)" d="M439.102 41.6872C443.073 42.0331 450.434 41.83 454.742 41.8208C462.537 41.8042 471.306 42.0428 478.983 41.5324C478.97 45.6434 478.78 52.1854 479.116 56.0824C471.047 56.0224 462.978 56.0203 454.909 56.0763C455.064 60.3249 455.202 67.1986 454.917 71.3528C461.049 71.0086 467.511 71.4012 473.972 71.0201C473.889 74.9534 473.689 81.7855 474.06 85.5064C468.485 85.4067 459.929 85.7825 454.894 85.3248C455.127 88.4663 455.013 92.6991 455.013 95.9226C455.037 97.9302 454.99 99.9381 454.872 101.943C462.097 101.295 471.373 101.972 479.018 101.572C478.879 105.986 478.915 111.438 479.035 115.852C471.973 115.354 462.739 115.738 455.544 115.651C451.265 115.6 442.799 115.381 438.978 115.744C438.645 110.968 438.67 42.9548 439.102 41.6872Z"/><path fill="#00B6A1" transform="scale(0.25 0.25)" d="M227.655 41.7325C237.459 41.8206 247.263 41.85 257.067 41.8206C263.955 41.8224 271.787 41.9873 278.59 41.5372C278.678 45.966 278.36 51.8441 278.726 56.0461C272.821 55.9844 266.916 55.9672 261.01 55.9945C261.236 70.2718 261.069 84.9321 261.07 99.238C261.045 104.743 261.07 110.248 261.144 115.752C256.691 115.479 249.708 115.616 245.22 115.824C244.958 96.8925 244.842 74.6988 245.293 55.8406C241.551 56.268 232.022 55.9209 227.531 56.1263C227.625 53.659 227.187 43.3182 227.655 41.7325Z"/><path fill="#00B6A1" transform="scale(0.25 0.25)" d="M393.128 41.6426C397.001 41.8823 405.777 41.9434 409.313 41.4525C408.877 61.2999 409.272 81.9706 409.177 101.895C416.336 101.393 424.351 102.025 431.652 101.607C431.474 106.068 431.6 111.426 431.588 115.956C429.303 115.503 420.72 115.638 417.914 115.643L393.164 115.634C393.057 112.357 393.058 108.871 393.114 105.589C393.475 84.3424 392.691 62.8699 393.128 41.6426Z"/><path fill="#00B6A1" transform="scale(0.25 0.25)" d="M560.447 25.1601C569.733 24.76 577.593 31.9422 578.028 41.2236C578.464 50.5051 571.309 58.3908 562.027 58.8606C552.696 59.333 544.757 52.134 544.319 42.803C543.882 33.472 551.113 25.5623 560.447 25.1601ZM562.877 56.154C570.667 55.2114 576.232 48.1539 575.329 40.3611C574.427 32.5684 567.396 26.9689 559.597 27.831C551.741 28.6994 546.09 35.791 546.999 43.6408C547.908 51.4907 555.03 57.1035 562.877 56.154Z"/><path fill="#00B6A1" transform="scale(0.25 0.25)" d="M555.668 33.5658C559.053 33.8211 562.953 33.1757 565.791 35.5016C568.659 37.8517 567.035 41.3194 565.08 43.5843C565.808 46.0333 566.963 48.2624 568.153 50.5059C566.718 50.4043 564.739 50.409 563.551 49.7232C563.144 48.297 561.857 44.2034 560.242 44.2683C559.066 45.578 559.433 48.4777 559.486 50.2636L555.784 50.2975C555.576 44.9255 555.679 38.9811 555.668 33.5658ZM562.72 40.5144C563.209 39.5882 563.371 39.368 563.204 38.3591C562.145 36.9025 561.026 37.0835 559.316 36.9589C559.374 38.148 559.259 40.0471 559.967 40.8713C560.698 41.2549 562.011 40.8476 562.72 40.5144Z"/><path fill="#00B6A1" transform="scale(0.25 0.25)" d="M462.149 126.592C463.292 126.499 465.445 126.392 466.466 126.81C473.993 129.885 473.675 142.085 466.501 145.464C456.074 147.522 453.726 131.339 462.149 126.592ZM461.4 141.175C462.407 141.891 463.758 142.976 465.063 142.76C470.922 139.345 469.823 128.703 463.287 129.458C459.111 132.643 459.503 136.771 461.4 141.175Z"/><path fill="#00B6A1" transform="scale(0.25 0.25)" d="M277.52 126.587C281.74 126.296 285.02 127.177 286.467 131.687C287.988 136.423 287.201 143.65 281.685 145.451C271.539 147.785 268.979 131.029 277.52 126.587ZM276.827 141.304C277.764 141.908 279.193 143.066 280.333 142.77C282.275 141.667 283.218 140.836 283.752 138.599C284.726 134.52 283.965 129.077 278.597 129.431C274.634 132.338 274.844 137.247 276.827 141.304Z"/><path fill="#00B6A1" transform="scale(0.25 0.25)" d="M395.368 126.608C404.263 125.708 406.411 132.819 404.493 140.5C403.945 142.695 402.014 144.456 399.981 145.392C388.989 147.476 387.417 131.349 395.368 126.608ZM398.685 142.616C404.212 139.192 403.077 128.926 396.729 129.419C391.027 132.856 393.711 144.431 398.685 142.616Z"/><path fill="#00B6A1" transform="scale(0.25 0.25)" d="M317.404 126.593C323.427 126.722 329.587 125.944 327.99 134.186C327.755 134.438 327.5 134.725 327.325 135.012C326.738 135.971 328.886 138.162 329.163 139.189C329.515 140.494 328.493 142.117 327.881 143.214C324.759 145.919 321.406 145.394 317.354 145.394C317.597 141.282 317.317 136.672 317.329 132.549C317.334 130.869 317.122 128.169 317.404 126.593ZM320.272 142.46C321.802 142.305 323.415 142.223 324.84 141.67L324.983 141.616C325.063 141.58 325.144 141.545 325.225 141.509C325.877 140.657 326.051 140.476 326.168 139.427C325.399 136.887 322.462 137.275 320.251 137.276C320.408 139.375 320.465 140.318 320.272 142.46ZM320.242 134.51C321.389 134.444 323.459 134.405 324.471 134.067C327.366 130.168 323.194 129.426 320.194 129.408C320.372 131.473 320.378 132.44 320.242 134.51Z"/><path fill="#00B6A1" transform="scale(0.25 0.25)" d="M256.795 126.548C263.264 126.703 270.952 126.502 266.469 135.631C267.261 138.818 270.225 137.424 267.605 142.853C264.613 146.044 261.139 145.264 256.844 145.48L256.795 126.548ZM259.689 137.237C259.989 139.36 259.995 140.375 259.805 142.519C261.447 142.317 263.147 142.166 264.717 141.656C267.029 136.791 262.735 137.529 259.689 137.237ZM259.697 134.551C261.142 134.424 262.728 134.35 264.081 133.861C267.177 130.454 262.215 129.455 259.746 129.313C259.928 131.671 259.943 132.187 259.697 134.551Z"/><path fill="#00B6A1" transform="scale(0.25 0.25)" d="M519.384 126.694C520.38 126.678 521.424 126.6 522.421 126.541C522.332 131.566 522.669 140.141 522.384 144.682C521.481 145.75 520.58 145.695 519.499 144.878C518.866 142.648 520.321 139.705 518.724 138.123C516.561 137.637 516.049 139.737 515.352 141.432C514.511 143.355 513.58 146.54 510.868 145.127C510.431 143.312 512.831 139.836 513.861 137.953C509.559 134.231 509.814 129.985 514.63 126.877L519.384 126.694ZM516.604 135.509C517.853 135.548 518.143 135.764 519.091 135.184C519.99 133.465 520.198 130.71 518.573 129.46L517.187 129.456C513.119 130.563 512.86 134.446 516.604 135.509Z"/><path fill="#00B6A1" transform="scale(0.25 0.25)" d="M374.96 126.562C377.087 126.784 384.322 126.442 385.317 127.248C385.623 128.256 385.628 127.857 385.315 128.848C384.032 129.997 379.686 129.477 377.594 129.48C377.643 130.973 377.436 132.409 378.2 133.543C381.019 134.958 382.241 132.091 386.146 136.766C386.677 139.138 386.466 139.911 385.924 142.323C385.751 142.527 385.572 142.727 385.388 142.922C382.665 145.794 378.571 145.378 374.824 145.478C375.259 139.996 374.71 132.375 374.96 126.562ZM377.535 142.594L382.243 141.76C385.94 137.305 381.018 136.933 377.696 136.832C377.6 138.694 377.75 140.812 377.535 142.594Z"/><path fill="#00B6A1" transform="scale(0.25 0.25)" d="M292.01 126.527C292.412 126.527 294.623 126.548 294.688 126.91C295.412 130.977 295.071 136.669 294.301 140.714C296.495 137.191 299.442 130.386 302.228 127.01C302.489 126.694 303.884 126.46 304.651 126.674C305.843 127.828 304.612 141.564 305.364 145.13L305.388 145.239C304.326 145.31 303.22 145.438 302.158 145.545C302.107 143.364 302.305 132.857 302.142 132.629C300.37 133.514 296.301 147.408 292.394 145.274C291.749 144.123 291.972 128.992 292.01 126.527Z"/><path fill="#00B6A1" transform="scale(0.25 0.25)" d="M494.951 140.712C496.197 138.048 501.508 126.207 504.565 126.535C505.993 127.65 505.617 142.277 505.314 144.692C504.645 145.404 504.928 145.197 503.87 145.438C502.85 145.107 503.049 145.34 502.552 144.568L502.658 143.72C502.456 142.846 502.562 136.479 502.644 135.453C502.659 134.562 502.848 133.855 502.387 133.271C499.996 134.908 497.157 146.137 493.304 145.456C492.251 144.265 492.16 127.902 493.031 126.612C495.885 125.384 495.43 130.562 495.409 132.009C495.368 134.961 495.35 137.777 494.951 140.712Z"/><path fill="#04C6B5" transform="scale(0.25 0.25)" d="M502.644 135.453C502.939 135.78 503.19 136.054 503.512 136.363L503.658 135.655C504.041 137.735 503.698 141.284 503.075 143.289L502.658 143.72C502.456 142.846 502.562 136.479 502.644 135.453Z"/><path fill="#00B6A1" transform="scale(0.25 0.25)" d="M476.645 126.596C478.757 126.566 482.442 126.783 484.468 127.148C486.433 128.557 487.808 130.065 487.688 132.671C487.627 134.068 487.01 135.383 485.975 136.323C484.031 138.108 481.986 138.219 479.515 138.12C478.398 139.766 480.903 144.108 478.39 145.623C476.941 145.246 476.455 144.376 476.543 142.905C476.862 137.589 476.218 131.882 476.645 126.596ZM483.581 134.435C486.868 130.721 482.555 129.488 479.418 129.408C479.141 131.327 479.568 133.273 479.285 135.371C481.102 135.157 481.895 135.103 483.581 134.435Z"/><path fill="#00B6A1" transform="scale(0.25 0.25)" d="M410.084 126.55C414.231 126.673 416.437 126.268 419.803 128.563C423.192 134.952 419.216 137.974 412.999 138.233C412.24 139.424 413.474 144.056 412.813 145.097C411.827 145.538 411.213 145.568 410.341 144.938C409.783 142.351 410.012 129.781 410.084 126.55ZM417.063 134.384C419.811 130.61 415.965 129.512 412.888 129.362C412.848 130.949 412.571 133.541 413.256 134.815C414.611 135.613 415.687 135.005 417.063 134.384Z"/><path fill="#00B6A1" transform="scale(0.25 0.25)" d="M430.607 126.453C431.243 126.489 431.646 126.556 432.273 126.665C432.707 126.994 433 127.369 433.236 128.027C435.184 133.473 436.647 139.151 438.601 144.604C438.51 144.824 438.433 145.007 438.372 145.154C437.617 145.75 437.833 145.766 437.021 145.8C435.659 145.173 434.711 142.218 434.092 140.768C433.414 140.24 433.72 140.357 432.805 140.395C431.303 140.473 430.245 140.387 428.741 140.272C428.379 142.027 428.271 144.427 426.614 145.303C425.73 145.408 425.47 145.475 424.646 145.175L424.426 144.666C425.226 141.725 429.392 128.629 430.607 126.453ZM432.384 137.692L432.854 137.82C433.375 136.904 432.139 133.021 431.404 132.422C431 133.728 429.9 136.149 430.064 137.161C430.764 137.824 431.238 137.63 432.384 137.692Z"/><path fill="#00B6A1" transform="scale(0.25 0.25)" d="M363.02 126.398C363.802 126.466 363.942 126.463 364.615 126.854C365.34 127.846 370.761 143.764 370.788 144.971C370.176 145.545 370.048 145.555 369.209 145.679C366.55 144.459 367.424 140.495 365.23 140.343C363.805 140.458 362.343 140.381 360.912 140.335C360.472 142.424 360.126 146.64 356.847 145.074C356.494 143.621 361.833 127.604 363.02 126.398Z"/><path fill="#00B6A1" transform="scale(0.25 0.25)" d="M345.485 126.62C347.879 126.7 350.04 126.634 352.432 126.56C352.532 129.753 352.554 142.363 352.205 145.033C351.592 145.615 350.922 145.384 350.303 145.046C348.272 141.943 351.003 131.213 348.883 129.438C347.778 129.424 347.627 129.249 346.769 129.767C346.152 134.57 345.991 144.578 340.303 145.807C339.441 145.633 339.714 145.811 339.208 145.124C338.858 142.859 339.511 143.139 340.775 141.547C343.713 137.847 343.242 132.417 344.197 127.999C344.392 127.095 344.792 127.031 345.485 126.62Z"/><path fill="#00B6A1" transform="scale(0.25 0.25)" d="M533.548 133.457C534.149 131.831 537.065 124.24 539.588 127.094C539.753 128.862 536.263 133.888 535.124 135.989C536.2 137.706 537.338 139.421 538.164 141.269C538.833 142.278 539.88 143.594 539.91 144.739L539.621 145.442C537.466 146.202 536.335 143.75 535.565 142.219C534.754 141.129 534.043 139.503 533.443 138.246C533.1 138.982 531.51 142.436 530.94 142.745C530.279 144.327 528.549 146.789 526.85 144.913C526.87 143.745 527.195 143.591 527.854 142.497C529.027 140.334 530.5 138.017 531.794 135.897C530.336 133.546 528.121 130.247 527.052 127.697C526.808 127.114 527.086 126.861 527.382 126.395C529.933 125.48 532.611 131.602 533.548 133.457Z"/><path fill="#04C6B5" transform="scale(0.25 0.25)" d="M535.565 142.219C537.507 142.42 536.922 143.184 538.164 141.269C538.833 142.278 539.88 143.594 539.91 144.739L539.621 145.442C537.466 146.202 536.335 143.75 535.565 142.219Z"/><path fill="#04C6B5" transform="scale(0.25 0.25)" d="M527.854 142.497C529.542 143.275 530.085 142.494 530.94 142.745C530.279 144.327 528.549 146.789 526.85 144.913C526.87 143.745 527.195 143.591 527.854 142.497Z"/><path fill="#00B6A1" transform="scale(0.25 0.25)" d="M246.46 126.59C247.712 126.536 250.519 126.178 251.469 127.059C252.121 127.664 252.566 129.166 251.827 129.917C251.503 129.851 251.178 129.787 250.853 129.726C244.786 128.593 243.251 133.107 244.065 138.326C244.292 139.783 244.928 140.583 245.803 141.778L248.589 142.944L251.948 141.898C252.441 142.732 252.45 144.342 251.839 145.121C239.984 149.585 236.765 130.643 246.46 126.59Z"/><path fill="#04C6B5" transform="scale(0.25 0.25)" d="M441.195 126.753C444.928 126.911 450.09 126.409 453.647 127.045C454.17 127.849 454.003 127.727 454.029 128.832L453.638 129.222C452.46 129.639 450.168 129.473 448.83 129.447C449.042 133.164 448.942 137.856 448.949 141.637C448.927 143.242 449.714 146.526 446.452 145.16C445.657 143.328 446.065 132.188 446.155 129.523C444.613 129.423 442.683 129.98 441.621 129.171C441.104 128.475 441.202 127.63 441.195 126.753Z"/><path fill="#00B6A1" transform="scale(0.25 0.25)" d="M294.026 119.224C297.463 119.061 296.46 120.691 298.174 122.353C299.06 123.213 300.71 119.39 302.805 119.003L303.124 119.304C303.366 120.236 303.277 120.581 303.146 121.547C302.678 122.537 302.281 123.465 301.397 124.149C300.437 124.905 299.21 125.239 297.999 125.074C296.819 124.916 295.756 124.275 295.067 123.304C294.345 122.29 293.807 120.493 294.026 119.224Z"/></svg>