<svg width="16" height="13" viewBox="0 0 16 13" fill="none" xmlns="http://www.w3.org/2000/svg">
<path fill-rule="evenodd" clip-rule="evenodd" d="M1.10538 5.61763C5.39431 3.76765 8.26124 2.57193 9.70618 1.98535C13.7887 0.315851 14.6373 0.0225607 15.1878 0C15.3024 0 15.5777 0.0225609 15.7611 0.157925C15.8988 0.270729 15.9446 0.428655 15.9676 0.541458C15.9905 0.654262 16.0134 0.90243 15.9905 1.10548C15.7611 3.38411 14.8208 8.95662 14.3162 11.506C14.1098 12.5889 13.697 12.9499 13.307 12.995C12.4584 13.0627 11.7933 12.431 10.9676 11.9121C9.68324 11.0773 8.94931 10.5584 7.68786 9.74624C6.24292 8.79869 7.18328 8.27979 8.00895 7.44505C8.21537 7.21944 11.9997 3.85789 12.0685 3.54204C12.0685 3.49692 12.0915 3.36155 11.9997 3.29387C11.908 3.22619 11.7933 3.24875 11.7016 3.27131C11.564 3.29387 9.49976 4.64751 5.48605 7.30968C4.88973 7.71578 4.36221 7.89626 3.88057 7.89626C3.35305 7.89626 2.34389 7.60297 1.58702 7.3548C0.669602 7.06151 -0.0643332 6.90359 0.00447327 6.40725C0.0503442 6.15908 0.417312 5.88836 1.10538 5.61763Z" fill="white"/>
</svg>
