<svg width="91" height="24" viewBox="0 0 91 24" fill="none" xmlns="http://www.w3.org/2000/svg">
<path fill-rule="evenodd" clip-rule="evenodd" d="M13.9643 18.1739H10.0012C3.81909 18.1739 8.31084 5.80092 13.5148 5.80092H19.776C20.7794 5.80092 22.5499 5.97508 23.4215 3.63543L24.7689 0.00109641H16.1832C11.5343 0.00109641 7.91409 1.54443 5.29949 4.13382C0.782453 8.56556 -0.749601 15.4859 0.332948 18.7971C1.36274 21.8597 4.16308 23.8762 8.54823 23.9255L11.9563 23.9507H16.1568L17.1866 21.0382C17.9527 18.9724 16.236 18.175 13.9632 18.175L13.9643 18.1739ZM62.2031 13.0455L63.4978 9.08695H49.6818C47.3837 9.08695 46.3528 9.6839 45.9572 10.9293L44.6625 14.8879H58.4785C60.7766 14.8879 61.8074 14.2909 62.2031 13.0455ZM42.6007 20.0162L41.3061 23.9748H55.122C57.3937 23.9748 58.451 23.3778 58.8466 22.1324L60.1413 18.1739H46.3253C44.0536 18.1739 43.0227 18.7708 42.5996 20.0162H42.6007ZM65.4266 3.98375L66.7212 0.025194H52.9042C50.6061 0.025194 49.5752 0.622155 49.1795 1.86756L47.8849 5.82612H61.7008C63.9725 5.82612 65.0023 5.22915 65.4255 3.98375H65.4266ZM44.5559 4.78007C43.9745 1.09534 41.8874 0.025194 36.8154 0.025194H27.5692L22.1796 14.8879H25.5877C27.622 14.8879 28.6518 14.9131 29.7354 12.1747L31.9807 5.80202H35.4152C38.3475 5.80202 37.6869 9.2622 36.2076 12.6227C34.8866 15.5856 32.5885 18.1991 29.8146 18.1991H24.082C21.7839 18.1991 20.7266 18.796 20.3046 20.0414L18.8781 24H23.0786L27.1999 23.9748C30.8454 23.9496 33.8304 23.701 37.3177 20.7381C41.0159 17.5769 45.2956 9.46046 44.5559 4.78007ZM90.9989 0H82.9946L75.4651 7.54361C74.5925 8.4144 73.6946 9.2863 72.8231 10.3072H72.7439L76.4949 0.00109641H69.97L61.1733 23.9748H67.6983L70.4986 16.4312L73.4045 14.1157L75.7036 20.9374C76.4169 23.0536 77.1566 23.9748 78.7414 23.9748H83.7343L78.6095 10.581L91 0.00109641L90.9989 0Z" fill="#00B33C"/>
</svg>
