<svg width="22" height="22" viewBox="0 0 22 22" fill="none" xmlns="http://www.w3.org/2000/svg">
<path opacity="0.4" d="M9.85417 2.24584C10.4867 1.705 11.5225 1.705 12.1642 2.24584L13.6125 3.4925C13.8875 3.73083 14.4008 3.92334 14.7675 3.92334H16.3258C17.2975 3.92334 18.095 4.72084 18.095 5.6925V7.25083C18.095 7.60834 18.2875 8.13084 18.5258 8.40584L19.7725 9.85417C20.3133 10.4867 20.3133 11.5225 19.7725 12.1642L18.5258 13.6125C18.2875 13.8875 18.095 14.4008 18.095 14.7675V16.3258C18.095 17.2975 17.2975 18.095 16.3258 18.095H14.7675C14.41 18.095 13.8875 18.2875 13.6125 18.5258L12.1642 19.7725C11.5317 20.3133 10.4958 20.3133 9.85417 19.7725L8.40584 18.5258C8.13084 18.2875 7.6175 18.095 7.25084 18.095H5.665C4.69334 18.095 3.89584 17.2975 3.89584 16.3258V14.7583C3.89584 14.4008 3.70334 13.8875 3.47417 13.6125L2.23667 12.155C1.705 11.5225 1.705 10.4958 2.23667 9.86334L3.47417 8.40584C3.70334 8.13084 3.89584 7.6175 3.89584 7.26V5.68334C3.89584 4.71167 4.69334 3.91417 5.665 3.91417H7.25084C7.60834 3.91417 8.13084 3.72167 8.40584 3.48334L9.85417 2.24584Z" fill="#0CCA22"/>
<path d="M9.89085 13.9058C9.70751 13.9058 9.53335 13.8325 9.40501 13.7041L7.18668 11.4858C6.92085 11.22 6.92085 10.78 7.18668 10.5141C7.45251 10.2483 7.89251 10.2483 8.15835 10.5141L9.89085 12.2466L13.8325 8.30497C14.0983 8.03913 14.5383 8.03913 14.8042 8.30497C15.07 8.5708 15.07 9.0108 14.8042 9.27663L10.3767 13.7041C10.2483 13.8325 10.0742 13.9058 9.89085 13.9058Z" fill="#0CCA22"/>
</svg>
