<svg width="18" height="10" viewBox="0 0 18 10" fill="none" xmlns="http://www.w3.org/2000/svg">
<path fill-rule="evenodd" clip-rule="evenodd" d="M2.64437 0H0.675168C0.112534 0 0 0.24779 0 0.520948C0 1.0089 0.667608 3.42884 3.10849 6.62942C4.73574 8.81516 7.02838 10 9.11463 10C10.3664 10 10.5212 9.73684 10.5212 9.28358V7.63158C10.5212 7.10526 10.6398 7.00021 11.0361 7.00021C11.3282 7.00021 11.8289 7.13684 12.9972 8.19068C14.3324 9.43968 14.5525 10 15.3035 10H17.2727C17.8354 10 18.1167 9.73684 17.9544 9.21753C17.7768 8.69995 17.1394 7.94895 16.2935 7.05879C15.8345 6.55137 15.146 6.00495 14.9374 5.73168C14.6454 5.38042 14.7288 5.22426 14.9374 4.91205C14.9374 4.91205 17.3366 1.75047 17.5869 0.677158C17.7121 0.28679 17.5869 0 16.9914 0H15.0222C14.5215 0 14.2907 0.24779 14.1655 0.520948C14.1655 0.520948 13.1641 2.80432 11.7455 4.28753C11.2865 4.71684 11.0779 4.85347 10.8275 4.85347C10.7023 4.85347 10.5212 4.71684 10.5212 4.32658V0.677158C10.5212 0.208737 10.3759 0 9.95855 0H6.86407C6.55121 0 6.363 0.217368 6.363 0.423421C6.363 0.867421 7.07231 0.969842 7.14543 2.21884V4.93158C7.14543 5.52632 7.03057 5.63416 6.78026 5.63416C6.11268 5.63416 4.4888 3.34058 3.52569 0.716158C3.33697 0.206053 3.14764 0 2.64437 0Z" fill="white"/>
</svg>
