<svg width="29" height="29" viewBox="0 0 29 29" fill="none" xmlns="http://www.w3.org/2000/svg">
<path d="M25.4717 10.3675V18.6325C25.4717 19.9858 24.7467 21.2426 23.5746 21.9313L16.3971 26.0759C15.225 26.7525 13.775 26.7525 12.5908 26.0759L5.41333 21.9313C4.24124 21.2546 3.51624 19.9979 3.51624 18.6325V10.3675C3.51624 9.01421 4.24124 7.75749 5.41333 7.06874L12.5908 2.92417C13.7629 2.2475 15.2129 2.2475 16.3971 2.92417L23.5746 7.06874C24.7467 7.75749 25.4717 9.00213 25.4717 10.3675Z" fill="#00B4A0"/>
<path d="M14.5 16.6146C14.0046 16.6146 13.5938 16.2037 13.5938 15.7083V9.36458C13.5938 8.86917 14.0046 8.45833 14.5 8.45833C14.9954 8.45833 15.4062 8.86917 15.4062 9.36458V15.7083C15.4062 16.2037 14.9954 16.6146 14.5 16.6146Z" fill="white"/>
<path d="M14.5 20.8437C14.3429 20.8437 14.1858 20.8075 14.0408 20.747C13.8837 20.6866 13.7628 20.6021 13.642 20.4933C13.5333 20.3725 13.4487 20.2396 13.3762 20.0946C13.3158 19.9496 13.2916 19.7925 13.2916 19.6354C13.2916 19.3212 13.4124 19.007 13.642 18.7775C13.7628 18.6687 13.8837 18.5842 14.0408 18.5237C14.4879 18.3304 15.0196 18.4391 15.3579 18.7775C15.4667 18.8983 15.5512 19.0191 15.6116 19.1762C15.672 19.3212 15.7083 19.4783 15.7083 19.6354C15.7083 19.7925 15.672 19.9496 15.6116 20.0946C15.5512 20.2396 15.4667 20.3725 15.3579 20.4933C15.1283 20.7229 14.8262 20.8437 14.5 20.8437Z" fill="white"/>
</svg>
