<svg width="18" height="13" viewBox="0 0 18 13" fill="none" xmlns="http://www.w3.org/2000/svg">
<path d="M17.6238 1.9734C17.4168 1.19655 16.807 0.584815 16.0325 0.377201C14.6288 -0.000113487 9 -0.000113487 9 -0.000113487C9 -0.000113487 3.37125 -0.000113487 1.96751 0.377201C1.19307 0.584815 0.583114 1.19655 0.376131 1.9734C0 3.38137 0 6.31904 0 6.31904C0 6.31904 0 9.25665 0.376131 10.6648C0.583114 11.4415 1.19307 12.0532 1.96751 12.261C3.37125 12.6382 9 12.6382 9 12.6382C9 12.6382 14.6288 12.6382 16.0325 12.261C16.807 12.0532 17.4168 11.4415 17.6238 10.6648C18 9.25665 18 6.31904 18 6.31904C18 6.31904 18 3.38137 17.6238 1.9734Z" fill="white"/>
<path d="M7.15906 8.9873L11.8636 6.32027L7.15906 3.65297V8.9873Z" fill="#1D2735"/>
</svg>
